<svg width="21" height="21" viewBox="0 0 21 21" fill="none" xmlns="http://www.w3.org/2000/svg">
<path d="M21 10.4997C21 13.2845 19.8938 15.9552 17.9246 17.9243C15.9555 19.8935 13.2848 20.9997 10.5 20.9997C7.71523 20.9997 5.04451 19.8935 3.07538 17.9243C1.10625 15.9552 0 13.2845 0 10.4997C0 10.3008 0.0790176 10.11 0.21967 9.96939C0.360322 9.82874 0.551088 9.74972 0.75 9.74972C0.948912 9.74972 1.13968 9.82874 1.28033 9.96939C1.42098 10.11 1.5 10.3008 1.5 10.4997C1.49692 12.5082 2.16478 14.4603 3.3976 16.0459C4.63041 17.6316 6.35753 18.7601 8.30483 19.2523C10.2521 19.7444 12.308 19.5721 14.1462 18.7626C15.9844 17.9531 17.4995 16.5528 18.4511 14.784C19.4028 13.0152 19.7363 10.9793 19.3989 8.99927C19.0614 7.01929 18.0723 5.20874 16.5886 3.85499C15.1048 2.50124 13.2114 1.68187 11.2088 1.52692C9.20628 1.37198 7.20935 1.89033 5.535 2.99972H6C6.19891 2.99972 6.38968 3.07874 6.53033 3.21939C6.67098 3.36004 6.75 3.55081 6.75 3.74972C6.75 3.94863 6.67098 4.1394 6.53033 4.28005C6.38968 4.4207 6.19891 4.49972 6 4.49972H3.75C3.55109 4.49972 3.36032 4.4207 3.21967 4.28005C3.07902 4.1394 3 3.94863 3 3.74972V1.49972C3 1.30081 3.07902 1.11004 3.21967 0.969389C3.36032 0.828737 3.55109 0.749719 3.75 0.749719C3.94891 0.749719 4.13968 0.828737 4.28033 0.969389C4.42098 1.11004 4.5 1.30081 4.5 1.49972V1.88522C6.0741 0.788196 7.91875 0.14355 9.83351 0.0213253C11.7483 -0.100899 13.6599 0.303973 15.3607 1.19195C17.0615 2.07993 18.4865 3.41705 19.4807 5.05802C20.4749 6.69899 21.0004 8.58106 21 10.4997ZM17.25 10.4997C17.25 11.8347 16.8541 13.1398 16.1124 14.2498C15.3707 15.3598 14.3165 16.225 13.0831 16.7359C11.8497 17.2468 10.4925 17.3805 9.18314 17.12C7.87377 16.8596 6.67103 16.2167 5.72703 15.2727C4.78302 14.3287 4.14015 13.126 3.8797 11.8166C3.61925 10.5072 3.75292 9.15001 4.26381 7.91661C4.7747 6.6832 5.63987 5.629 6.7499 4.8873C7.85993 4.1456 9.16498 3.74972 10.5 3.74972C12.2896 3.7517 14.0053 4.4635 15.2708 5.72894C16.5362 6.99438 17.248 8.71012 17.25 10.4997ZM13.1663 11.3757L11.25 10.0985V6.74972C11.25 6.55081 11.171 6.36004 11.0303 6.21939C10.8897 6.07874 10.6989 5.99972 10.5 5.99972C10.3011 5.99972 10.1103 6.07874 9.96967 6.21939C9.82902 6.36004 9.75 6.55081 9.75 6.74972V10.4997C9.74998 10.6232 9.78043 10.7447 9.83865 10.8536C9.89687 10.9624 9.98106 11.0552 10.0837 11.1237L12.3337 12.6237C12.4992 12.7341 12.7018 12.7742 12.8969 12.7353C13.092 12.6963 13.2636 12.5815 13.374 12.416C13.4844 12.2505 13.5245 12.0479 13.4856 11.8528C13.4466 11.6577 13.3317 11.4861 13.1663 11.3757Z" fill="#007635"/>
</svg>
