<svg width="24" height="24" viewBox="0 0 24 24" fill="none" xmlns="http://www.w3.org/2000/svg">
<path d="M5.60854 4.38548L15.1762 1.77391L14.6695 0.74977C14.338 0.0840764 13.5295 -0.190825 12.8638 0.140674L4.29871 4.38548H5.60854ZM18.1462 1.84938C18.0277 1.84938 17.909 1.86555 17.7905 1.89789L15.5428 2.51238L8.67827 4.38548H19.8657L19.4453 2.84387C19.2836 2.24286 18.7391 1.84938 18.1462 1.84938ZM21.2698 5.32877H1.35025C0.924424 5.32877 0.544413 5.52551 0.296463 5.83545C0.183268 5.97829 0.0970242 6.1427 0.0485121 6.32327C0.0188658 6.43646 0 6.55505 0 6.67633V21.6908C0 22.4347 0.603706 23.0384 1.34756 23.0384H21.2672C22.011 23.0384 22.6147 22.4347 22.6147 21.6908V17.9311H14.6183C13.3543 17.9311 12.3275 16.9043 12.3275 15.6403V12.6433C12.3275 12.0234 12.5754 11.4602 12.977 11.0478C13.3327 10.6813 13.8098 10.4333 14.3434 10.3713C14.4323 10.3606 14.524 10.3552 14.6156 10.3552H22.6147V6.67633C22.6174 5.93248 22.0137 5.32877 21.2698 5.32877Z" fill="#007635"/>
<path d="M23.5607 11.6431C23.4259 11.5191 23.2669 11.4248 23.089 11.3628C22.9516 11.317 22.8061 11.29 22.6524 11.29H14.6183C13.8744 11.29 13.2707 11.8937 13.2707 12.6376V15.6372C13.2707 16.3811 13.8744 16.9848 14.6183 16.9848H22.6524C22.8061 16.9848 22.9516 16.9578 23.089 16.912C23.2669 16.8527 23.4259 16.7557 23.5607 16.6317C23.8302 16.3865 24 16.0307 24 15.6373V12.6376C24 12.2441 23.8302 11.8883 23.5607 11.6431ZM17.432 14.4056C17.432 14.7775 17.1301 15.0793 16.7582 15.0793H16.3108C15.9389 15.0793 15.6371 14.7775 15.6371 14.4056V13.9582C15.6371 13.7426 15.7368 13.5512 15.8958 13.4299C16.0117 13.341 16.1545 13.2844 16.3108 13.2844H16.7582C17.1301 13.2844 17.432 13.5862 17.432 13.9582V14.4056Z" fill="#007635"/>
</svg>
