<svg width="232" height="80" viewBox="0 0 232 80" fill="none" xmlns="http://www.w3.org/2000/svg">
<g filter="url(#filter0_d_1_2)">
<path fill-rule="evenodd" clip-rule="evenodd" d="M23.4375 23.5127C23.4336 21.5194 23.4405 20.1432 23.4405 17.7823C23.4405 16.5485 23.4405 15.4722 23.4405 13.9132L2.21094 14.0447L8.14151 24.9232H23.4405C23.4394 24.446 23.4375 24.3206 23.438 23.7774L23.4375 23.5127ZM213.619 43.955L218.631 34.888H153.028C152.905 31.4911 152.293 28.1271 151.207 24.9012H167.741C168.983 24.9043 205.055 24.9216 206.299 24.9216C206.299 24.1387 206.299 22.2042 206.299 21.0987C206.299 19.062 206.299 20.4196 206.299 18.0587C206.299 17.0619 206.299 15.0186 206.299 14.0447H144.804C141.298 9.7043 136.865 6.19116 131.827 3.7643C130.72 3.22744 129.593 2.75023 128.442 2.32797C124.367 0.82256 120.047 0.0361046 115.678 0C111.294 0.0298255 106.961 0.82099 102.872 2.32797C101.729 2.74238 100.609 3.22116 99.5097 3.7486C94.4629 6.18331 90.0221 9.69488 86.5168 14.0431L23.4405 13.9132C23.4405 14.3359 23.4405 15.295 23.4405 15.8477C23.4161 17.5978 23.4405 16.1623 23.4405 17.7823C23.4405 20.2696 23.4169 14.0102 23.4405 24.9232L64.3407 24.964H65.2072V24.9216H80.1137C79.2503 28.1977 78.6428 31.5382 78.2928 34.9084H12.6891L17.7014 43.9754H78.7496C79.1703 46.9737 80.0996 49.8872 81.4841 52.5856H22.7105L27.2722 60.7515H85.5796C85.5796 60.6887 85.5938 60.6306 85.6157 60.5741C85.6361 60.5239 85.666 60.4736 85.7084 60.4313C85.7523 60.3889 85.801 60.3528 85.8575 60.3308C85.914 60.3088 85.9721 60.3026 86.0302 60.3026C89.4632 64.8784 93.9465 68.5831 99.1 71.1026C104.254 73.6299 109.93 74.8935 115.677 74.8009C121.388 74.7381 127.006 73.4022 132.131 70.8969C137.256 68.3837 141.746 64.7638 145.286 60.3041L145.742 60.7531H204.059L208.621 52.5871H149.841C151.234 49.8887 152.153 46.9768 152.576 43.977L213.618 43.955H213.619ZM142.598 48.9029C141.113 52.4788 138.928 55.7345 136.179 58.4753C133.425 61.2177 130.163 63.395 126.565 64.8721C122.965 66.3509 119.105 67.1059 115.214 67.0996V67.0792C111.324 67.0855 107.468 66.3289 103.871 64.8517C100.281 63.373 97.0107 61.2036 94.262 58.4628C91.5071 55.7283 89.3298 52.4741 87.8448 48.8966C86.3598 45.3144 85.5953 41.4811 85.6016 37.6037C85.5953 33.7343 86.3598 29.9009 87.8448 26.3171C89.3298 22.7412 91.5071 19.4855 94.262 16.7447C97.0107 14.0102 100.279 11.8407 103.871 10.3636C107.47 8.88488 111.324 8.12982 115.214 8.1361C119.105 8.12982 122.959 8.88645 126.557 10.3636C130.156 11.8407 133.418 14.0117 136.173 16.7447C138.922 19.4855 141.105 22.7412 142.59 26.3171C144.075 29.9009 144.834 33.7343 144.824 37.6037C144.838 41.4811 144.082 45.3207 142.598 48.9045V48.9029ZM206.299 14.0447C206.299 14.4659 206.299 14.7423 206.299 15.0186C206.299 16.6768 206.299 18.0969 206.299 19.7169C206.299 21.4342 206.299 27.1788 206.299 24.4151C206.299 41.2735 206.299 24.6915 206.299 24.9216H223.157L229.088 14.0431H206.357L206.299 14.0447Z" fill="#007635"/>
</g>
<path d="M93.6734 33.6897H96.552L94.9867 40.999H97.6796L97.4541 42.1133H91.8825L93.6734 33.6897ZM100.964 36.4091L101.362 40.3092L103.458 36.4091H104.864L101.667 42.1133C101.349 42.6705 101.026 43.0994 100.699 43.4001C100.372 43.7008 100.013 43.9219 99.6242 44.0634C99.244 44.2049 98.8195 44.2845 98.3507 44.3022C97.8909 44.3287 97.3647 44.342 96.7721 44.342L96.9711 43.4266C97.263 43.4266 97.5327 43.4222 97.7803 43.4134C98.0368 43.4045 98.2402 43.378 98.3905 43.3338C98.5939 43.2807 98.7399 43.1834 98.8283 43.0419C98.9167 42.9093 98.961 42.7103 98.961 42.445C98.961 42.2681 98.9433 42.0647 98.9079 41.8348C98.8814 41.6048 98.8504 41.3616 98.815 41.1052L98.165 36.4091H100.964ZM105.111 36.4091H106.132L106.252 35.8652C106.367 35.3346 106.535 34.888 106.756 34.5254C106.977 34.154 107.238 33.8533 107.539 33.6233C107.848 33.3934 108.197 33.2298 108.587 33.1325C108.976 33.0264 109.391 32.9733 109.833 32.9733C110.108 32.9733 110.399 32.991 110.709 33.0264C111.019 33.0618 111.341 33.1192 111.677 33.1988L111.465 34.2601C111.271 34.2336 111.063 34.2159 110.842 34.207C110.621 34.1893 110.444 34.1805 110.311 34.1805C110.134 34.1805 109.979 34.1938 109.847 34.2203C109.723 34.2468 109.612 34.2999 109.515 34.3795C109.418 34.4502 109.334 34.5519 109.263 34.6846C109.192 34.8172 109.135 34.9941 109.091 35.2152L108.839 36.4091H110.231L110.059 37.2979H108.653L107.631 42.1133H104.925L105.947 37.2979H104.912L105.111 36.4091ZM114.799 36.4091H117.505L116.285 42.1133H114.135L113.897 41.2643H113.817C113.587 41.5385 113.273 41.7684 112.875 41.9542C112.486 42.131 112.093 42.2195 111.695 42.2195C111.164 42.2195 110.748 42.0868 110.448 41.8215C110.147 41.5473 109.997 41.1936 109.997 40.7602C109.997 40.5392 110.032 40.265 110.103 39.9378C110.182 39.6017 110.253 39.2878 110.315 38.9959L110.872 36.4091H113.565L112.902 39.5133C112.884 39.584 112.866 39.668 112.849 39.7653C112.831 39.8626 112.813 39.9599 112.796 40.0572C112.778 40.1456 112.76 40.234 112.743 40.3225C112.734 40.4021 112.729 40.4684 112.729 40.5215C112.729 40.6541 112.756 40.7691 112.809 40.8664C112.871 40.9548 112.977 40.999 113.127 40.999C113.286 40.999 113.437 40.946 113.578 40.8398C113.72 40.7337 113.83 40.632 113.91 40.5347L114.799 36.4091ZM119.627 42.1133H117.478L119.362 33.1988H122.081L121.219 37.2581H121.312C121.604 36.9221 121.931 36.6833 122.293 36.5418C122.665 36.3914 123.032 36.3163 123.394 36.3163C123.704 36.3163 123.96 36.3649 124.164 36.4622C124.376 36.5506 124.544 36.6744 124.668 36.8336C124.792 36.9928 124.88 37.183 124.933 37.404C124.986 37.6251 125.013 37.8595 125.013 38.1071C125.013 38.2309 125.004 38.4167 124.986 38.6643C124.969 38.9119 124.929 39.1905 124.867 39.5C124.805 39.8007 124.717 40.1147 124.602 40.4419C124.487 40.7602 124.332 41.0521 124.137 41.3174C123.952 41.5827 123.713 41.7994 123.421 41.9674C123.138 42.1355 122.797 42.2195 122.399 42.2195C122.161 42.2195 121.926 42.1929 121.696 42.1399C121.475 42.0868 121.272 42.0161 121.086 41.9276C120.909 41.8392 120.75 41.7375 120.609 41.6225C120.476 41.4987 120.379 41.3749 120.317 41.2511H120.224L119.627 42.1133ZM121.126 40.9327C121.338 40.9327 121.515 40.8222 121.657 40.6011C121.798 40.3711 121.913 40.1058 122.001 39.8051C122.09 39.4956 122.152 39.1905 122.187 38.8898C122.231 38.5803 122.254 38.3503 122.254 38.2C122.254 38.0231 122.223 37.8772 122.161 37.7622C122.108 37.6472 122.006 37.5898 121.856 37.5898C121.679 37.5898 121.515 37.6561 121.365 37.7887C121.214 37.9126 121.104 38.0187 121.033 38.1071L120.516 40.4817C120.578 40.5878 120.657 40.6895 120.755 40.7868C120.861 40.8841 120.984 40.9327 121.126 40.9327ZM128.262 39.447C128.227 39.6415 128.2 39.8272 128.183 40.0041C128.174 40.181 128.169 40.3402 128.169 40.4817C128.169 40.5613 128.174 40.6497 128.183 40.747C128.192 40.8443 128.209 40.9371 128.236 41.0256C128.271 41.1052 128.315 41.1759 128.368 41.2378C128.43 41.2909 128.514 41.3174 128.621 41.3174C128.7 41.3174 128.789 41.2909 128.886 41.2378C128.992 41.1847 129.094 41.1096 129.191 41.0123C129.297 40.915 129.394 40.7956 129.483 40.6541C129.58 40.5126 129.655 40.3534 129.708 40.1766H131.884L131.539 41.596C131.362 41.711 131.159 41.8082 130.929 41.8878C130.699 41.9674 130.456 42.0337 130.199 42.0868C129.943 42.131 129.682 42.162 129.416 42.1797C129.151 42.2062 128.899 42.2195 128.66 42.2195C128.218 42.2195 127.807 42.1797 127.427 42.1001C127.046 42.0205 126.715 41.8834 126.432 41.6888C126.149 41.4943 125.923 41.2378 125.755 40.9194C125.596 40.5922 125.516 40.1898 125.516 39.7123C125.516 39.2789 125.583 38.8544 125.715 38.4388C125.857 38.0231 126.087 37.6561 126.405 37.3377C126.732 37.0105 127.166 36.7496 127.705 36.555C128.254 36.3605 128.934 36.2632 129.748 36.2632C130.632 36.2632 131.296 36.4003 131.738 36.6744C132.189 36.9486 132.414 37.3775 132.414 37.9612C132.414 38.2 132.379 38.4609 132.308 38.7439C132.238 39.018 132.131 39.2524 131.99 39.447H128.262ZM130.027 37.8683C130.027 37.5942 129.982 37.4085 129.894 37.3112C129.806 37.2139 129.699 37.1653 129.576 37.1653C129.434 37.1653 129.301 37.2139 129.178 37.3112C129.063 37.3996 128.957 37.5234 128.859 37.6826C128.762 37.833 128.674 38.0098 128.594 38.2132C128.514 38.4078 128.448 38.6156 128.395 38.8367H129.907C129.925 38.7306 129.943 38.6201 129.96 38.5051C129.978 38.4078 129.991 38.3017 130 38.1867C130.018 38.0717 130.027 37.9656 130.027 37.8683ZM133.7 36.4091H135.862L136.061 37.404H136.154C136.357 37.0857 136.618 36.8159 136.936 36.5948C137.255 36.3737 137.675 36.2632 138.197 36.2632C138.232 36.2632 138.285 36.2676 138.356 36.2765C138.435 36.2765 138.519 36.2897 138.608 36.3163C138.705 36.334 138.802 36.3649 138.9 36.4091C139.006 36.4445 139.108 36.4976 139.205 36.5683L138.621 39.301H137.175C137.157 38.7527 137.109 38.3724 137.029 38.1602C136.95 37.9391 136.821 37.8285 136.645 37.8285C136.556 37.8285 136.459 37.8507 136.353 37.8949C136.255 37.9302 136.154 38.0143 136.048 38.1469L135.199 42.1133H132.492L133.7 36.4091Z" fill="#1BB600"/>
<defs>
<filter id="filter0_d_1_2" x="0" y="0" width="231.299" height="79.2275" filterUnits="userSpaceOnUse" color-interpolation-filters="sRGB">
<feFlood flood-opacity="0" result="BackgroundImageFix"/>
<feColorMatrix in="SourceAlpha" type="matrix" values="0 0 0 0 0 0 0 0 0 0 0 0 0 0 0 0 0 0 127 0" result="hardAlpha"/>
<feOffset dy="2.21094"/>
<feGaussianBlur stdDeviation="1.10547"/>
<feComposite in2="hardAlpha" operator="out"/>
<feColorMatrix type="matrix" values="0 0 0 0 0 0 0 0 0 0 0 0 0 0 0 0 0 0 0.1 0"/>
<feBlend mode="normal" in2="BackgroundImageFix" result="effect1_dropShadow_1_2"/>
<feBlend mode="normal" in="SourceGraphic" in2="effect1_dropShadow_1_2" result="shape"/>
</filter>
</defs>
</svg>
