<svg width="200" height="135" viewBox="0 0 200 135" fill="none" xmlns="http://www.w3.org/2000/svg">
<path fill-rule="evenodd" clip-rule="evenodd" d="M40.836 59.2511C40.32 58.1201 40.061 56.8021 40.061 55.2981C40.061 54.5121 40.118 53.7871 40.23 53.1191H27.735L31.513 60.0491H41.259C41.105 59.7991 40.965 59.5331 40.835 59.2511H40.836ZM162.41 72.1731L165.603 66.3971H123.811C123.733 64.2331 123.343 62.0901 122.651 60.0351H133.184C133.975 60.0371 134.767 60.0381 135.559 60.0381C135.306 59.6841 135.081 59.2921 134.885 58.8631C134.369 57.7321 134.11 56.4141 134.11 54.9101C134.11 54.2751 134.146 53.6771 134.221 53.1191H118.572C116.339 50.3541 113.515 48.1161 110.305 46.5701C109.6 46.2281 108.882 45.9241 108.149 45.6551C105.553 44.6961 102.801 44.1951 100.018 44.1721C97.225 44.1911 94.465 44.6951 91.86 45.6551C91.132 45.9191 90.418 46.2241 89.718 46.5601C86.503 48.1111 83.674 50.3481 81.441 53.1181H63.569C63.701 53.4031 63.819 53.7081 63.924 54.0331C64.235 54.9971 64.391 55.9961 64.391 57.0281C64.391 58.1171 64.24 59.1321 63.939 60.0701L67.314 60.0751H67.866V60.0481H77.362C76.812 62.1351 76.425 64.2631 76.202 66.4101H34.41L37.603 72.1861H76.493C76.761 74.0961 77.353 75.9521 78.235 77.6711H40.794L43.7 82.8731H80.844C80.844 82.8331 80.853 82.7961 80.867 82.7601C80.88 82.7281 80.899 82.6961 80.926 82.6691C80.954 82.6421 80.985 82.6191 81.021 82.6051C81.057 82.5911 81.094 82.5871 81.131 82.5871C83.318 85.5021 86.174 87.8621 89.457 89.4671C92.74 91.0771 96.356 91.8821 100.017 91.8231C103.655 91.7831 107.234 90.9321 110.499 89.3361C113.764 87.7351 116.624 85.4291 118.879 82.5881L119.17 82.8741H156.32L159.226 77.6721H121.781C122.668 75.9531 123.254 74.0981 123.523 72.1871L162.409 72.1731H162.41ZM117.167 75.3251C116.221 77.6031 114.829 79.6771 113.078 81.4231C111.323 83.1701 109.245 84.5571 106.953 85.4981C104.66 86.4401 102.201 86.9211 99.722 86.9171V86.9041C97.244 86.9081 94.788 86.4261 92.496 85.4851C90.209 84.5431 88.126 83.1611 86.375 81.4151C84.62 79.6731 83.233 77.6001 82.287 75.3211C81.341 73.0391 80.854 70.5971 80.858 68.1271C80.854 65.6621 81.341 63.2201 82.287 60.9371C83.233 58.6591 84.62 56.5851 86.375 54.8391C88.126 53.0971 90.208 51.7151 92.496 50.7741C94.789 49.8321 97.244 49.3511 99.722 49.3551C102.201 49.3511 104.656 49.8331 106.948 50.7741C109.241 51.7151 111.319 53.0981 113.074 54.8391C114.825 56.5851 116.216 58.6591 117.162 60.9371C118.108 63.2201 118.591 65.6621 118.585 68.1271C118.594 70.5971 118.112 73.0431 117.167 75.3261V75.3251ZM157.785 53.1191C157.852 53.2891 157.916 53.4641 157.974 53.6461C158.285 54.6101 158.441 55.6091 158.441 56.6411C158.441 57.7351 158.289 58.7531 157.985 59.6941C157.946 59.8161 157.905 59.9341 157.861 60.0481H168.486L172.264 53.1181H157.784L157.785 53.1191Z" fill="#007635"/>
<path d="M47.351 55.1611C47.807 55.7851 48.126 56.4641 48.308 57.2001C48.49 57.9371 48.581 58.6921 48.581 59.4661V62.3141C47.776 62.6191 46.971 62.7701 46.166 62.7701C44.966 62.7701 43.906 62.4661 42.988 61.8591C42.299 61.4031 41.722 60.8001 41.259 60.0491C41.105 59.7991 40.965 59.5331 40.835 59.2511C40.319 58.1201 40.06 56.8021 40.06 55.2981C40.06 54.5121 40.117 53.7871 40.229 53.1191C40.345 52.4301 40.519 51.8051 40.755 51.2421C41.218 50.1341 41.849 49.3021 42.646 48.7481C43.443 48.1941 44.351 47.9161 45.369 47.9161C46.463 47.9161 47.594 48.2731 48.763 48.9871C49.932 49.7021 51.018 50.7341 52.021 52.0851V47.5291C50.244 47.1191 48.505 46.9141 46.804 46.9141C44.845 46.9141 43.083 47.2071 41.519 47.7921C39.955 48.3771 38.713 49.2961 37.794 50.5491C37.251 51.2881 36.87 52.1451 36.647 53.1201C36.493 53.7971 36.416 54.5311 36.416 55.3211C36.416 57.2431 36.798 58.8181 37.563 60.0491C37.609 60.1221 37.655 60.1931 37.703 60.2641C38.561 61.5251 39.712 62.4371 41.155 62.9981C42.598 63.5601 44.253 63.8411 46.121 63.8411C47.989 63.8411 49.903 63.5751 52.044 63.0441V55.1611H47.351Z" fill="black"/>
<path d="M66.977 53.179C66.966 53.159 66.956 53.139 66.944 53.119C66.392 52.101 65.602 51.328 64.574 50.799C63.526 50.26 62.265 49.99 60.792 49.99C59.319 49.99 58.05 50.26 56.987 50.799C55.944 51.328 55.146 52.101 54.593 53.119C54.581 53.139 54.571 53.159 54.56 53.179C54.006 54.227 53.729 55.511 53.729 57.029C53.729 58.181 53.892 59.191 54.218 60.057C54.317 60.322 54.431 60.573 54.561 60.81C55.115 61.828 55.92 62.599 56.976 63.123C58.032 63.647 59.303 63.909 60.792 63.909C62.281 63.909 63.526 63.651 64.574 63.134C65.622 62.618 66.423 61.847 66.977 60.822C67.105 60.586 67.218 60.337 67.315 60.075C67.645 59.201 67.809 58.186 67.809 57.028C67.809 55.51 67.531 54.226 66.977 53.178V53.179ZM63.936 60.082C63.631 61.024 63.203 61.772 62.648 62.326C62.094 62.88 61.475 63.157 60.792 63.157C60.109 63.157 59.466 62.88 58.912 62.326C58.358 61.772 57.929 61.024 57.625 60.082C57.622 60.075 57.621 60.069 57.618 60.062C57.318 59.126 57.169 58.115 57.169 57.029C57.169 55.943 57.32 54.998 57.625 54.034C57.727 53.709 57.844 53.405 57.975 53.119C58.232 52.557 58.544 52.073 58.912 51.664C59.466 51.049 60.093 50.741 60.792 50.741C61.491 50.741 62.091 51.049 62.637 51.664C63 52.072 63.31 52.557 63.569 53.119C63.701 53.404 63.819 53.709 63.924 54.034C64.235 54.998 64.391 55.997 64.391 57.029C64.391 58.118 64.24 59.133 63.939 60.071C63.939 60.074 63.936 60.079 63.936 60.082Z" fill="black"/>
<path d="M47.351 55.1611C47.807 55.7851 48.126 56.4641 48.308 57.2001C48.49 57.9371 48.581 58.6921 48.581 59.4661V62.3141C47.776 62.6191 46.971 62.7701 46.166 62.7701C44.966 62.7701 43.906 62.4661 42.988 61.8591C42.299 61.4031 41.722 60.8001 41.259 60.0491C41.105 59.7991 40.965 59.5331 40.835 59.2511C40.319 58.1201 40.06 56.8021 40.06 55.2981C40.06 54.5121 40.117 53.7871 40.229 53.1191C40.345 52.4301 40.519 51.8051 40.755 51.2421C41.218 50.1341 41.849 49.3021 42.646 48.7481C43.443 48.1941 44.351 47.9161 45.369 47.9161C46.463 47.9161 47.594 48.2731 48.763 48.9871C49.932 49.7021 51.018 50.7341 52.021 52.0851V47.5291C50.244 47.1191 48.505 46.9141 46.804 46.9141C44.845 46.9141 43.083 47.2071 41.519 47.7921C39.955 48.3771 38.713 49.2961 37.794 50.5491C37.251 51.2881 36.87 52.1451 36.647 53.1201C36.493 53.7971 36.416 54.5311 36.416 55.3211C36.416 57.2431 36.798 58.8181 37.563 60.0491C37.609 60.1221 37.655 60.1931 37.703 60.2641C38.561 61.5251 39.712 62.4371 41.155 62.9981C42.598 63.5601 44.253 63.8411 46.121 63.8411C47.989 63.8411 49.903 63.5751 52.044 63.0441V55.1611H47.351Z" fill="url(#paint0_linear_22241_4919)"/>
<path d="M66.977 53.179C66.966 53.159 66.956 53.139 66.944 53.119C66.392 52.101 65.602 51.328 64.574 50.799C63.526 50.26 62.265 49.99 60.792 49.99C59.319 49.99 58.05 50.26 56.987 50.799C55.944 51.328 55.146 52.101 54.593 53.119C54.581 53.139 54.571 53.159 54.56 53.179C54.006 54.227 53.729 55.511 53.729 57.029C53.729 58.181 53.892 59.191 54.218 60.057C54.317 60.322 54.431 60.573 54.561 60.81C55.115 61.828 55.92 62.599 56.976 63.123C58.032 63.647 59.303 63.909 60.792 63.909C62.281 63.909 63.526 63.651 64.574 63.134C65.622 62.618 66.423 61.847 66.977 60.822C67.105 60.586 67.218 60.337 67.315 60.075C67.645 59.201 67.809 58.186 67.809 57.028C67.809 55.51 67.531 54.226 66.977 53.178V53.179ZM63.936 60.082C63.631 61.024 63.203 61.772 62.648 62.326C62.094 62.88 61.475 63.157 60.792 63.157C60.109 63.157 59.466 62.88 58.912 62.326C58.358 61.772 57.929 61.024 57.625 60.082C57.622 60.075 57.621 60.069 57.618 60.062C57.318 59.126 57.169 58.115 57.169 57.029C57.169 55.943 57.32 54.998 57.625 54.034C57.727 53.709 57.844 53.405 57.975 53.119C58.232 52.557 58.544 52.073 58.912 51.664C59.466 51.049 60.093 50.741 60.792 50.741C61.491 50.741 62.091 51.049 62.637 51.664C63 52.072 63.31 52.557 63.569 53.119C63.701 53.404 63.819 53.709 63.924 54.034C64.235 54.998 64.391 55.997 64.391 57.029C64.391 58.118 64.24 59.133 63.939 60.071C63.939 60.074 63.936 60.079 63.936 60.082Z" fill="url(#paint1_linear_22241_4919)"/>
<path d="M141.4 54.7741C141.856 55.3981 142.175 56.0771 142.357 56.8131C142.539 57.5501 142.63 58.3051 142.63 59.0791V61.9271C141.825 62.2321 141.02 62.3831 140.215 62.3831C139.015 62.3831 137.955 62.0801 137.037 61.4721C136.467 61.0961 135.974 60.6171 135.559 60.0381C135.306 59.6841 135.081 59.2921 134.885 58.8631C134.369 57.7321 134.11 56.4141 134.11 54.9101C134.11 54.2751 134.146 53.6771 134.221 53.1191C134.331 52.2771 134.526 51.5231 134.804 50.8551C135.267 49.7471 135.898 48.9151 136.695 48.3611C137.492 47.8071 138.4 47.5291 139.418 47.5291C140.512 47.5291 141.643 47.8871 142.812 48.6001C143.981 49.3151 145.067 50.3471 146.07 51.6981V47.1421C144.293 46.7321 142.554 46.5271 140.853 46.5271C138.894 46.5271 137.132 46.8201 135.568 47.4051C134.004 47.9901 132.762 48.9091 131.843 50.1621C131.23 50.9971 130.822 51.9841 130.618 53.1201C130.516 53.6881 130.465 54.2921 130.465 54.9341C130.465 56.9701 130.894 58.6181 131.752 59.8781C131.788 59.9321 131.825 59.9841 131.863 60.0371C132.708 61.2171 133.822 62.0751 135.203 62.6121C136.646 63.1741 138.301 63.4551 140.169 63.4551C142.037 63.4551 143.951 63.1891 146.092 62.6581V54.7761H141.399L141.4 54.7741Z" fill="black"/>
<path d="M161.186 53.119C161.136 53.008 161.083 52.898 161.027 52.792C160.473 51.744 159.672 50.951 158.624 50.412C157.576 49.873 156.315 49.603 154.842 49.603C153.369 49.603 152.1 49.873 151.037 50.412C149.974 50.951 149.165 51.744 148.61 52.792C148.553 52.898 148.499 53.008 148.451 53.119C148.003 54.104 147.779 55.278 147.779 56.642C147.779 58.006 147.993 59.1 148.422 60.046C148.48 60.175 148.544 60.302 148.61 60.424C149.164 61.442 149.969 62.213 151.025 62.737C152.081 63.261 153.352 63.523 154.841 63.523C156.33 63.523 157.575 63.265 158.623 62.748C159.671 62.232 160.472 61.461 161.026 60.436C161.094 60.311 161.157 60.182 161.217 60.05C161.644 59.099 161.858 57.963 161.858 56.643C161.858 55.323 161.634 54.105 161.186 53.12V53.119ZM156.698 61.939C156.144 62.493 155.525 62.77 154.842 62.77C154.159 62.77 153.516 62.493 152.962 61.939C152.479 61.456 152.091 60.826 151.798 60.048C151.755 59.933 151.714 59.816 151.675 59.694C151.37 58.753 151.219 57.735 151.219 56.641C151.219 55.609 151.37 54.61 151.675 53.646C151.732 53.464 151.794 53.288 151.861 53.119C152.145 52.39 152.512 51.776 152.962 51.277C153.516 50.662 154.143 50.354 154.842 50.354C155.541 50.354 156.141 50.662 156.687 51.277C157.131 51.776 157.496 52.39 157.785 53.119C157.852 53.289 157.916 53.464 157.974 53.646C158.285 54.61 158.441 55.609 158.441 56.641C158.441 57.735 158.289 58.753 157.985 59.694C157.946 59.816 157.905 59.934 157.861 60.048C157.568 60.825 157.18 61.455 156.697 61.938L156.698 61.939Z" fill="black"/>
<path d="M141.4 54.7741C141.856 55.3981 142.175 56.0771 142.357 56.8131C142.539 57.5501 142.63 58.3051 142.63 59.0791V61.9271C141.825 62.2321 141.02 62.3831 140.215 62.3831C139.015 62.3831 137.955 62.0801 137.037 61.4721C136.467 61.0961 135.974 60.6171 135.559 60.0381C135.306 59.6841 135.081 59.2921 134.885 58.8631C134.369 57.7321 134.11 56.4141 134.11 54.9101C134.11 54.2751 134.146 53.6771 134.221 53.1191C134.331 52.2771 134.526 51.5231 134.804 50.8551C135.267 49.7471 135.898 48.9151 136.695 48.3611C137.492 47.8071 138.4 47.5291 139.418 47.5291C140.512 47.5291 141.643 47.8871 142.812 48.6001C143.981 49.3151 145.067 50.3471 146.07 51.6981V47.1421C144.293 46.7321 142.554 46.5271 140.853 46.5271C138.894 46.5271 137.132 46.8201 135.568 47.4051C134.004 47.9901 132.762 48.9091 131.843 50.1621C131.23 50.9971 130.822 51.9841 130.618 53.1201C130.516 53.6881 130.465 54.2921 130.465 54.9341C130.465 56.9701 130.894 58.6181 131.752 59.8781C131.788 59.9321 131.825 59.9841 131.863 60.0371C132.708 61.2171 133.822 62.0751 135.203 62.6121C136.646 63.1741 138.301 63.4551 140.169 63.4551C142.037 63.4551 143.951 63.1891 146.092 62.6581V54.7761H141.399L141.4 54.7741Z" fill="url(#paint2_linear_22241_4919)"/>
<path d="M161.186 53.119C161.136 53.008 161.083 52.898 161.027 52.792C160.473 51.744 159.672 50.951 158.624 50.412C157.576 49.873 156.315 49.603 154.842 49.603C153.369 49.603 152.1 49.873 151.037 50.412C149.974 50.951 149.165 51.744 148.61 52.792C148.553 52.898 148.499 53.008 148.451 53.119C148.003 54.104 147.779 55.278 147.779 56.642C147.779 58.006 147.993 59.1 148.422 60.046C148.48 60.175 148.544 60.302 148.61 60.424C149.164 61.442 149.969 62.213 151.025 62.737C152.081 63.261 153.352 63.523 154.841 63.523C156.33 63.523 157.575 63.265 158.623 62.748C159.671 62.232 160.472 61.461 161.026 60.436C161.094 60.311 161.157 60.182 161.217 60.05C161.644 59.099 161.858 57.963 161.858 56.643C161.858 55.323 161.634 54.105 161.186 53.12V53.119ZM156.698 61.939C156.144 62.493 155.525 62.77 154.842 62.77C154.159 62.77 153.516 62.493 152.962 61.939C152.479 61.456 152.091 60.826 151.798 60.048C151.755 59.933 151.714 59.816 151.675 59.694C151.37 58.753 151.219 57.735 151.219 56.641C151.219 55.609 151.37 54.61 151.675 53.646C151.732 53.464 151.794 53.288 151.861 53.119C152.145 52.39 152.512 51.776 152.962 51.277C153.516 50.662 154.143 50.354 154.842 50.354C155.541 50.354 156.141 50.662 156.687 51.277C157.131 51.776 157.496 52.39 157.785 53.119C157.852 53.289 157.916 53.464 157.974 53.646C158.285 54.61 158.441 55.609 158.441 56.641C158.441 57.735 158.289 58.753 157.985 59.694C157.946 59.816 157.905 59.934 157.861 60.048C157.568 60.825 157.18 61.455 156.697 61.938L156.698 61.939Z" fill="url(#paint3_linear_22241_4919)"/>
<path d="M89.379 67.3169C88.807 66.7419 88.035 66.4529 87.064 66.4529H83.82V73.5049H87.025C87.527 73.5049 88.026 73.3749 88.522 73.1129C89.017 72.8509 89.427 72.4459 89.752 71.8969C90.077 71.3489 90.239 70.6649 90.239 69.8479C90.239 68.7359 89.953 67.8919 89.38 67.3159L89.379 67.3169ZM88.028 71.9029C87.761 72.3959 87.399 72.7289 86.943 72.9029C86.568 73.0459 86.13 73.1269 85.628 73.1429V73.3939L85.296 73.1429C85.41 73.1459 85.52 73.1449 85.628 73.1429V66.8249C85.521 66.8219 85.41 66.8219 85.296 66.8249L85.628 66.6439V66.8249C86.164 66.8339 86.616 66.8969 86.984 67.0109C87.426 67.1489 87.777 67.4399 88.039 67.8849C88.301 68.3309 88.431 68.9849 88.431 69.8489C88.431 70.7129 88.298 71.4109 88.029 71.9029H88.028Z" fill="black"/>
<path d="M95.271 67.5581C94.722 67.5581 94.24 67.7391 93.825 68.1011C93.409 68.4631 93.038 68.9281 92.71 69.4971V67.6991H90.902V73.5051H92.71V70.0091C92.918 69.6551 93.154 69.3911 93.418 69.2201C93.683 69.0501 93.972 68.9641 94.287 68.9641C94.796 68.9641 95.399 69.1451 96.095 69.5071V67.6991C95.821 67.6051 95.546 67.5581 95.271 67.5581Z" fill="black"/>
<path d="M98.324 65.7851C98.15 65.6081 97.932 65.5181 97.671 65.5181C97.41 65.5181 97.201 65.6071 97.023 65.7851C96.846 65.9621 96.757 66.1781 96.757 66.4331C96.757 66.6881 96.846 66.9031 97.023 67.0811C97.201 67.2581 97.417 67.3471 97.671 67.3471C97.925 67.3471 98.15 67.2581 98.324 67.0811C98.498 66.9031 98.586 66.6871 98.586 66.4331C98.586 66.1791 98.498 65.9621 98.324 65.7851ZM96.768 67.6991V73.5051H98.576V67.6991H96.768Z" fill="black"/>
<path d="M104.653 67.699L102.73 72.644L100.826 67.699H99.018L101.248 73.505H102.775L105.015 67.699H104.653Z" fill="black"/>
<path d="M109.605 73.0431C109.19 73.2301 108.798 73.3241 108.43 73.3241C108.041 73.3241 107.704 73.1971 107.415 72.9431C107.127 72.6881 106.908 72.3481 106.758 71.9231C106.663 71.6551 106.598 71.3721 106.563 71.0751C107.023 71.1751 107.474 71.2251 107.918 71.2251C108.52 71.2251 109.055 71.1381 109.52 70.9631C109.985 70.7891 110.345 70.5561 110.599 70.2651C110.854 69.9731 110.981 69.6631 110.981 69.3351C110.981 69.0071 110.879 68.6881 110.675 68.4161C110.471 68.1451 110.17 67.9311 109.776 67.7731C109.381 67.6161 108.898 67.5371 108.33 67.5371C107.633 67.5371 107.017 67.6391 106.481 67.8431C105.945 68.0481 105.525 68.3641 105.22 68.7931C104.915 69.2221 104.763 69.7611 104.763 70.4101C104.763 71.2071 104.944 71.8551 105.306 72.3541C105.668 72.8531 106.148 73.2111 106.748 73.4291C107.347 73.6471 108.032 73.7561 108.802 73.7561C109.485 73.7561 110.215 73.6721 110.992 73.5051V72.0491C110.483 72.5251 110.021 72.8561 109.606 73.0441L109.605 73.0431ZM106.532 70.5421C106.532 70.0801 106.599 69.6501 106.733 69.2511C106.867 68.8531 107.061 68.5301 107.315 68.2821C107.57 68.0351 107.871 67.9111 108.22 67.9111C108.569 67.9111 108.839 68.0231 109.033 68.2481C109.227 68.4721 109.324 68.7421 109.324 69.0561C109.324 69.3501 109.234 69.6271 109.053 69.8851C108.872 70.1431 108.594 70.3541 108.219 70.5181C107.844 70.6831 107.379 70.7641 106.823 70.7641C106.748 70.7641 106.653 70.7611 106.537 70.7561C106.534 70.6861 106.532 70.6151 106.532 70.5431V70.5421Z" fill="black"/>
<path d="M115.964 67.5581C115.415 67.5581 114.933 67.7391 114.518 68.1011C114.102 68.4631 113.731 68.9281 113.403 69.4971V67.6991H111.595V73.5051H113.403V70.0091C113.611 69.6551 113.847 69.3911 114.111 69.2201C114.376 69.0501 114.665 68.9641 114.98 68.9641C115.489 68.9641 116.092 69.1451 116.788 69.5071V67.6991C116.514 67.6051 116.239 67.5581 115.964 67.5581Z" fill="black"/>
<g filter="url(#filter0_d_22241_4919)">
<path d="M89.379 67.3169C88.807 66.7419 88.035 66.4529 87.064 66.4529H83.82V73.5049H87.025C87.527 73.5049 88.026 73.3749 88.522 73.1129C89.017 72.8509 89.427 72.4459 89.752 71.8969C90.077 71.3489 90.239 70.6649 90.239 69.8479C90.239 68.7359 89.953 67.8919 89.38 67.3159L89.379 67.3169ZM88.028 71.9029C87.761 72.3959 87.399 72.7289 86.943 72.9029C86.568 73.0459 86.13 73.1269 85.628 73.1429V73.3939L85.296 73.1429C85.41 73.1459 85.52 73.1449 85.628 73.1429V66.8249C85.521 66.8219 85.41 66.8219 85.296 66.8249L85.628 66.6439V66.8249C86.164 66.8339 86.616 66.8969 86.984 67.0109C87.426 67.1489 87.777 67.4399 88.039 67.8849C88.301 68.3309 88.431 68.9849 88.431 69.8489C88.431 70.7129 88.298 71.4109 88.029 71.9029H88.028Z" fill="url(#paint4_linear_22241_4919)"/>
</g>
<g filter="url(#filter1_d_22241_4919)">
<path d="M95.271 67.5581C94.722 67.5581 94.24 67.7391 93.825 68.1011C93.409 68.4631 93.038 68.9281 92.71 69.4971V67.6991H90.902V73.5051H92.71V70.0091C92.918 69.6551 93.154 69.3911 93.418 69.2201C93.683 69.0501 93.972 68.9641 94.287 68.9641C94.796 68.9641 95.399 69.1451 96.095 69.5071V67.6991C95.821 67.6051 95.546 67.5581 95.271 67.5581Z" fill="url(#paint5_linear_22241_4919)"/>
</g>
<g filter="url(#filter2_d_22241_4919)">
<path d="M98.324 65.7851C98.15 65.6081 97.932 65.5181 97.671 65.5181C97.41 65.5181 97.201 65.6071 97.023 65.7851C96.846 65.9621 96.757 66.1781 96.757 66.4331C96.757 66.6881 96.846 66.9031 97.023 67.0811C97.201 67.2581 97.417 67.3471 97.671 67.3471C97.925 67.3471 98.15 67.2581 98.324 67.0811C98.498 66.9031 98.586 66.6871 98.586 66.4331C98.586 66.1791 98.498 65.9621 98.324 65.7851ZM96.768 67.6991V73.5051H98.576V67.6991H96.768Z" fill="url(#paint6_linear_22241_4919)"/>
</g>
<g filter="url(#filter3_d_22241_4919)">
<path d="M104.653 67.699L102.73 72.644L100.826 67.699H99.018L101.248 73.505H102.775L105.015 67.699H104.653Z" fill="url(#paint7_linear_22241_4919)"/>
</g>
<g filter="url(#filter4_d_22241_4919)">
<path d="M109.605 73.0431C109.19 73.2301 108.798 73.3241 108.43 73.3241C108.041 73.3241 107.704 73.1971 107.415 72.9431C107.127 72.6881 106.908 72.3481 106.758 71.9231C106.663 71.6551 106.598 71.3721 106.563 71.0751C107.023 71.1751 107.474 71.2251 107.918 71.2251C108.52 71.2251 109.055 71.1381 109.52 70.9631C109.985 70.7891 110.345 70.5561 110.599 70.2651C110.854 69.9731 110.981 69.6631 110.981 69.3351C110.981 69.0071 110.879 68.6881 110.675 68.4161C110.471 68.1451 110.17 67.9311 109.776 67.7731C109.381 67.6161 108.898 67.5371 108.33 67.5371C107.633 67.5371 107.017 67.6391 106.481 67.8431C105.945 68.0481 105.525 68.3641 105.22 68.7931C104.915 69.2221 104.763 69.7611 104.763 70.4101C104.763 71.2071 104.944 71.8551 105.306 72.3541C105.668 72.8531 106.148 73.2111 106.748 73.4291C107.347 73.6471 108.032 73.7561 108.802 73.7561C109.485 73.7561 110.215 73.6721 110.992 73.5051V72.0491C110.483 72.5251 110.021 72.8561 109.606 73.0441L109.605 73.0431ZM106.532 70.5421C106.532 70.0801 106.599 69.6501 106.733 69.2511C106.867 68.8531 107.061 68.5301 107.315 68.2821C107.57 68.0351 107.871 67.9111 108.22 67.9111C108.569 67.9111 108.839 68.0231 109.033 68.2481C109.227 68.4721 109.324 68.7421 109.324 69.0561C109.324 69.3501 109.234 69.6271 109.053 69.8851C108.872 70.1431 108.594 70.3541 108.219 70.5181C107.844 70.6831 107.379 70.7641 106.823 70.7641C106.748 70.7641 106.653 70.7611 106.537 70.7561C106.534 70.6861 106.532 70.6151 106.532 70.5431V70.5421Z" fill="url(#paint8_linear_22241_4919)"/>
</g>
<g filter="url(#filter5_d_22241_4919)">
<path d="M115.964 67.5581C115.415 67.5581 114.933 67.7391 114.518 68.1011C114.102 68.4631 113.731 68.9281 113.403 69.4971V67.6991H111.595V73.5051H113.403V70.0091C113.611 69.6551 113.847 69.3911 114.111 69.2201C114.376 69.0501 114.665 68.9641 114.98 68.9641C115.489 68.9641 116.092 69.1451 116.788 69.5071V67.6991C116.514 67.6051 116.239 67.5581 115.964 67.5581Z" fill="url(#paint9_linear_22241_4919)"/>
</g>
<defs>
<filter id="filter0_d_22241_4919" x="79.82" y="66.4529" width="14.419" height="15.052" filterUnits="userSpaceOnUse" color-interpolation-filters="sRGB">
<feFlood flood-opacity="0" result="BackgroundImageFix"/>
<feColorMatrix in="SourceAlpha" type="matrix" values="0 0 0 0 0 0 0 0 0 0 0 0 0 0 0 0 0 0 127 0" result="hardAlpha"/>
<feOffset dy="4"/>
<feGaussianBlur stdDeviation="2"/>
<feComposite in2="hardAlpha" operator="out"/>
<feColorMatrix type="matrix" values="0 0 0 0 0 0 0 0 0 0 0 0 0 0 0 0 0 0 0.25 0"/>
<feBlend mode="normal" in2="BackgroundImageFix" result="effect1_dropShadow_22241_4919"/>
<feBlend mode="normal" in="SourceGraphic" in2="effect1_dropShadow_22241_4919" result="shape"/>
</filter>
<filter id="filter1_d_22241_4919" x="86.902" y="67.5581" width="13.193" height="13.947" filterUnits="userSpaceOnUse" color-interpolation-filters="sRGB">
<feFlood flood-opacity="0" result="BackgroundImageFix"/>
<feColorMatrix in="SourceAlpha" type="matrix" values="0 0 0 0 0 0 0 0 0 0 0 0 0 0 0 0 0 0 127 0" result="hardAlpha"/>
<feOffset dy="4"/>
<feGaussianBlur stdDeviation="2"/>
<feComposite in2="hardAlpha" operator="out"/>
<feColorMatrix type="matrix" values="0 0 0 0 0 0 0 0 0 0 0 0 0 0 0 0 0 0 0.25 0"/>
<feBlend mode="normal" in2="BackgroundImageFix" result="effect1_dropShadow_22241_4919"/>
<feBlend mode="normal" in="SourceGraphic" in2="effect1_dropShadow_22241_4919" result="shape"/>
</filter>
<filter id="filter2_d_22241_4919" x="92.757" y="65.5181" width="9.82899" height="15.9871" filterUnits="userSpaceOnUse" color-interpolation-filters="sRGB">
<feFlood flood-opacity="0" result="BackgroundImageFix"/>
<feColorMatrix in="SourceAlpha" type="matrix" values="0 0 0 0 0 0 0 0 0 0 0 0 0 0 0 0 0 0 127 0" result="hardAlpha"/>
<feOffset dy="4"/>
<feGaussianBlur stdDeviation="2"/>
<feComposite in2="hardAlpha" operator="out"/>
<feColorMatrix type="matrix" values="0 0 0 0 0 0 0 0 0 0 0 0 0 0 0 0 0 0 0.25 0"/>
<feBlend mode="normal" in2="BackgroundImageFix" result="effect1_dropShadow_22241_4919"/>
<feBlend mode="normal" in="SourceGraphic" in2="effect1_dropShadow_22241_4919" result="shape"/>
</filter>
<filter id="filter3_d_22241_4919" x="95.018" y="67.699" width="13.997" height="13.8059" filterUnits="userSpaceOnUse" color-interpolation-filters="sRGB">
<feFlood flood-opacity="0" result="BackgroundImageFix"/>
<feColorMatrix in="SourceAlpha" type="matrix" values="0 0 0 0 0 0 0 0 0 0 0 0 0 0 0 0 0 0 127 0" result="hardAlpha"/>
<feOffset dy="4"/>
<feGaussianBlur stdDeviation="2"/>
<feComposite in2="hardAlpha" operator="out"/>
<feColorMatrix type="matrix" values="0 0 0 0 0 0 0 0 0 0 0 0 0 0 0 0 0 0 0.25 0"/>
<feBlend mode="normal" in2="BackgroundImageFix" result="effect1_dropShadow_22241_4919"/>
<feBlend mode="normal" in="SourceGraphic" in2="effect1_dropShadow_22241_4919" result="shape"/>
</filter>
<filter id="filter4_d_22241_4919" x="100.763" y="67.5371" width="14.229" height="14.219" filterUnits="userSpaceOnUse" color-interpolation-filters="sRGB">
<feFlood flood-opacity="0" result="BackgroundImageFix"/>
<feColorMatrix in="SourceAlpha" type="matrix" values="0 0 0 0 0 0 0 0 0 0 0 0 0 0 0 0 0 0 127 0" result="hardAlpha"/>
<feOffset dy="4"/>
<feGaussianBlur stdDeviation="2"/>
<feComposite in2="hardAlpha" operator="out"/>
<feColorMatrix type="matrix" values="0 0 0 0 0 0 0 0 0 0 0 0 0 0 0 0 0 0 0.25 0"/>
<feBlend mode="normal" in2="BackgroundImageFix" result="effect1_dropShadow_22241_4919"/>
<feBlend mode="normal" in="SourceGraphic" in2="effect1_dropShadow_22241_4919" result="shape"/>
</filter>
<filter id="filter5_d_22241_4919" x="107.595" y="67.5581" width="13.193" height="13.947" filterUnits="userSpaceOnUse" color-interpolation-filters="sRGB">
<feFlood flood-opacity="0" result="BackgroundImageFix"/>
<feColorMatrix in="SourceAlpha" type="matrix" values="0 0 0 0 0 0 0 0 0 0 0 0 0 0 0 0 0 0 127 0" result="hardAlpha"/>
<feOffset dy="4"/>
<feGaussianBlur stdDeviation="2"/>
<feComposite in2="hardAlpha" operator="out"/>
<feColorMatrix type="matrix" values="0 0 0 0 0 0 0 0 0 0 0 0 0 0 0 0 0 0 0.25 0"/>
<feBlend mode="normal" in2="BackgroundImageFix" result="effect1_dropShadow_22241_4919"/>
<feBlend mode="normal" in="SourceGraphic" in2="effect1_dropShadow_22241_4919" result="shape"/>
</filter>
<linearGradient id="paint0_linear_22241_4919" x1="36.416" y1="55.4121" x2="67.809" y2="55.4121" gradientUnits="userSpaceOnUse">
<stop stop-color="#38AE1F"/>
<stop offset="1" stop-color="#8BD33A"/>
</linearGradient>
<linearGradient id="paint1_linear_22241_4919" x1="36.416" y1="55.412" x2="67.809" y2="55.412" gradientUnits="userSpaceOnUse">
<stop stop-color="#38AE1F"/>
<stop offset="1" stop-color="#8BD33A"/>
</linearGradient>
<linearGradient id="paint2_linear_22241_4919" x1="130.465" y1="55.0251" x2="161.858" y2="55.0251" gradientUnits="userSpaceOnUse">
<stop stop-color="#38AE1F"/>
<stop offset="1" stop-color="#8BD33A"/>
</linearGradient>
<linearGradient id="paint3_linear_22241_4919" x1="130.465" y1="55.025" x2="161.858" y2="55.025" gradientUnits="userSpaceOnUse">
<stop stop-color="#38AE1F"/>
<stop offset="1" stop-color="#8BD33A"/>
</linearGradient>
<linearGradient id="paint4_linear_22241_4919" x1="83.819" y1="69.6379" x2="116.788" y2="69.6379" gradientUnits="userSpaceOnUse">
<stop stop-color="#35AC20"/>
<stop offset="1" stop-color="#8BD33A"/>
</linearGradient>
<linearGradient id="paint5_linear_22241_4919" x1="83.819" y1="69.6381" x2="116.788" y2="69.6381" gradientUnits="userSpaceOnUse">
<stop stop-color="#35AC20"/>
<stop offset="1" stop-color="#8BD33A"/>
</linearGradient>
<linearGradient id="paint6_linear_22241_4919" x1="83.819" y1="69.6381" x2="116.788" y2="69.6381" gradientUnits="userSpaceOnUse">
<stop stop-color="#35AC20"/>
<stop offset="1" stop-color="#8BD33A"/>
</linearGradient>
<linearGradient id="paint7_linear_22241_4919" x1="83.819" y1="69.638" x2="116.788" y2="69.638" gradientUnits="userSpaceOnUse">
<stop stop-color="#35AC20"/>
<stop offset="1" stop-color="#8BD33A"/>
</linearGradient>
<linearGradient id="paint8_linear_22241_4919" x1="83.819" y1="69.6381" x2="116.788" y2="69.6381" gradientUnits="userSpaceOnUse">
<stop stop-color="#35AC20"/>
<stop offset="1" stop-color="#8BD33A"/>
</linearGradient>
<linearGradient id="paint9_linear_22241_4919" x1="83.819" y1="69.6381" x2="116.788" y2="69.6381" gradientUnits="userSpaceOnUse">
<stop stop-color="#35AC20"/>
<stop offset="1" stop-color="#8BD33A"/>
</linearGradient>
</defs>
</svg>
