<svg width="36" height="36" viewBox="0 0 36 36" fill="none" xmlns="http://www.w3.org/2000/svg">
<rect width="36" height="36" rx="8" fill="#88FF00" fill-opacity="0.3"/>
<g clip-path="url(#clip0_22006_2637)">
<path d="M25.9082 15.8423C25.8697 15.7952 25.8213 15.7572 25.7664 15.7311C25.7115 15.7049 25.6515 15.6913 25.5907 15.6911H24.0335C23.6492 14.6775 23.1486 13.6845 22.5796 13.3096C20.6111 12.0146 15.3897 12.0146 13.4212 13.3096C12.8517 13.6849 12.3532 14.6792 11.9668 15.6911H10.4097C10.3488 15.691 10.2887 15.7046 10.2338 15.7308C10.1789 15.7569 10.1305 15.795 10.0921 15.8423C10.0536 15.8894 10.0261 15.9445 10.0116 16.0036C9.99715 16.0627 9.99611 16.1244 10.0086 16.1839L10.2392 17.3015C10.2583 17.3938 10.3087 17.4766 10.3817 17.5361C10.4548 17.5956 10.5461 17.628 10.6403 17.628H11.1016C10.6563 18.1418 10.4404 18.7887 10.4375 19.436C10.4346 20.2357 10.7382 20.9583 11.2933 21.4696C11.2995 21.4749 11.3056 21.4786 11.3114 21.4839V23.0477C11.3114 23.3865 11.5867 23.6622 11.9259 23.6622H13.3622C13.7014 23.6622 13.9767 23.3865 13.9767 23.0477V22.4192H22.0232V23.0477C22.0232 23.3865 22.2985 23.6622 22.6377 23.6622H24.0741C24.4125 23.6622 24.6886 23.3865 24.6886 23.0477V21.5147C25.2777 20.9751 25.5592 20.2328 25.5628 19.4917C25.5653 18.8223 25.3396 18.1516 24.868 17.6272H25.3601C25.4544 17.6275 25.5459 17.5951 25.619 17.5355C25.6922 17.4759 25.7424 17.3928 25.7611 17.3003L25.9922 16.1831C26.0041 16.1236 26.0027 16.0622 25.9882 16.0033C25.9737 15.9444 25.9464 15.8894 25.9082 15.8423ZM14.0959 14.3359C15.665 13.3031 20.3349 13.3031 21.9032 14.3359C22.208 14.5358 22.6 15.3441 22.9593 16.3339H13.0406C13.3991 15.3445 13.7911 14.5366 14.0959 14.3359ZM12.2581 19.59C12.2582 19.2694 12.3856 18.962 12.6123 18.7353C12.839 18.5087 13.1465 18.3814 13.4671 18.3814C13.7877 18.3815 14.0951 18.5089 14.3217 18.7356C14.5484 18.9624 14.6757 19.2698 14.6756 19.5904C14.6756 19.7491 14.6443 19.9063 14.5835 20.053C14.5228 20.1996 14.4337 20.3328 14.3215 20.4451C14.2092 20.5573 14.0759 20.6463 13.9293 20.707C13.7826 20.7677 13.6254 20.799 13.4667 20.799C13.3079 20.7989 13.1508 20.7676 13.0041 20.7069C12.8575 20.6461 12.7242 20.557 12.612 20.4448C12.3854 20.2181 12.2581 19.9106 12.2581 19.59ZM22.5488 20.799C22.2281 20.799 21.9206 20.6716 21.6938 20.4448C21.4671 20.218 21.3397 19.9105 21.3397 19.5898C21.3397 19.2691 21.4671 18.9615 21.6938 18.7348C21.9206 18.508 22.2281 18.3806 22.5488 18.3806C22.8695 18.3806 23.1771 18.508 23.4038 18.7348C23.6306 18.9615 23.758 19.2691 23.758 19.5898C23.758 19.9105 23.6306 20.218 23.4038 20.4448C23.1771 20.6716 22.8695 20.799 22.5488 20.799Z" fill="#007635"/>
</g>
<defs>
<clipPath id="clip0_22006_2637">
<rect width="16" height="16" fill="white" transform="translate(10 10)"/>
</clipPath>
</defs>
</svg>
