<svg width="16" height="20" viewBox="0 0 16 20" fill="none" xmlns="http://www.w3.org/2000/svg">
<path fill-rule="evenodd" clip-rule="evenodd" d="M4.43873 0.555286C4.43876 0.408155 4.49427 0.267054 4.59306 0.162991C4.69186 0.0589283 4.82586 0.000416044 4.96561 0.000312507L10.2341 0C10.3738 0.000341178 10.5078 0.0590154 10.6066 0.163162C10.7053 0.267309 10.7608 0.408432 10.7609 0.555598V1.92739H4.43873V0.555286ZM13.1011 19.2058C13.0877 19.4221 12.9962 19.6248 12.8454 19.7725C12.6947 19.9201 12.496 20.0015 12.2901 20H2.84897C2.64313 19.9994 2.44513 19.9168 2.29472 19.7689C2.14431 19.621 2.05263 19.4186 2.03809 19.2025L1.23019 6.76007H13.9634L13.1013 19.2057L13.1011 19.2058ZM15.2 5.63317H0V4.34408C0.000225963 4.00219 0.129312 3.67436 0.358917 3.43258C0.588522 3.1908 0.899877 3.05483 1.22462 3.05452L13.9752 3.05409C14.2999 3.05462 14.6112 3.19071 14.8407 3.43252C15.0703 3.67432 15.1994 4.0021 15.1997 4.34396V5.63306L15.2 5.63317ZM5.15257 17.0339C5.15257 17.1078 5.16642 17.1811 5.19331 17.2495C5.2202 17.3178 5.25962 17.3799 5.30931 17.4322C5.359 17.4845 5.41799 17.526 5.48291 17.5543C5.54783 17.5827 5.61742 17.5972 5.68769 17.5972C5.75796 17.5972 5.82755 17.5827 5.89247 17.5543C5.95739 17.526 6.01638 17.4845 6.06607 17.4322C6.11576 17.3799 6.15518 17.3178 6.18207 17.2495C6.20896 17.1811 6.22281 17.1078 6.22281 17.0339V9.13341C6.22168 8.98483 6.16484 8.84274 6.06467 8.73807C5.96449 8.63341 5.8291 8.57466 5.68797 8.57461C5.54684 8.57455 5.4114 8.63321 5.31116 8.7378C5.21092 8.84239 5.15398 8.98444 5.15276 9.13302V17.0339H5.15257ZM8.97059 17.0339C8.97059 17.1833 9.02697 17.3266 9.12734 17.4323C9.22771 17.5379 9.36384 17.5973 9.50578 17.5973C9.64772 17.5973 9.78385 17.5379 9.88422 17.4323C9.98458 17.3266 10.041 17.1833 10.041 17.0339V9.13341C10.0398 8.98481 9.983 8.8427 9.88281 8.73802C9.78262 8.63334 9.64721 8.57458 9.50605 8.57453C9.36491 8.57448 9.22945 8.63314 9.12919 8.73774C9.02894 8.84235 8.972 8.98442 8.97077 9.13302L8.97059 17.0339Z" fill="#EF0000"/>
</svg>
