<svg width="32" height="32" viewBox="0 0 32 32" fill="none" xmlns="http://www.w3.org/2000/svg">
<g filter="url(#filter0_di_22139_2864)">
<rect x="4" y="4" width="24" height="24" rx="12" fill="#00A442" shape-rendering="crispEdges"/>
<path d="M18.4112 16.9936L16.405 18.9998C16.2972 19.1076 16.2245 19.2529 16.2058 19.4053L16.044 20.624C16.03 20.7365 16.0417 20.8467 16.0792 20.9521H11.1104C10.4753 20.9521 10.0229 20.3334 10.2175 19.7287L10.9886 17.3193C11.237 16.5459 12.0831 16.1451 12.8378 16.4381C13.3393 16.6326 13.9839 16.785 14.7737 16.785C15.5636 16.785 16.2081 16.6326 16.7097 16.4381C17.3518 16.1873 18.0597 16.4381 18.4112 16.9936ZM14.7761 11.0498C13.4425 11.0498 12.3597 12.1326 12.3597 13.4662C12.3597 14.7998 13.4425 15.8826 14.7761 15.8826C16.1097 15.8826 17.1925 14.7998 17.1925 13.4662C17.1925 12.1326 16.1097 11.0498 14.7761 11.0498ZM19.4401 16.6279L16.7354 19.3303C16.6979 19.3654 16.6768 19.4146 16.6698 19.4662L16.5081 20.685C16.487 20.8373 16.6183 20.9686 16.7706 20.9475L17.9893 20.7857C18.0409 20.7787 18.0878 20.7553 18.1253 20.7201L20.8276 18.0154L19.4401 16.6279ZM21.655 16.3584L21.0948 15.7982C20.8651 15.5686 20.4948 15.5686 20.2675 15.7982L19.9229 16.1428L21.3104 17.5303L21.655 17.1857C21.8823 16.9584 21.8823 16.5881 21.655 16.3584Z" fill="white"/>
</g>
<defs>
<filter id="filter0_di_22139_2864" x="0" y="0" width="32" height="32" filterUnits="userSpaceOnUse" color-interpolation-filters="sRGB">
<feFlood flood-opacity="0" result="BackgroundImageFix"/>
<feColorMatrix in="SourceAlpha" type="matrix" values="0 0 0 0 0 0 0 0 0 0 0 0 0 0 0 0 0 0 127 0" result="hardAlpha"/>
<feOffset/>
<feGaussianBlur stdDeviation="2"/>
<feComposite in2="hardAlpha" operator="out"/>
<feColorMatrix type="matrix" values="0 0 0 0 0.125 0 0 0 0 0.125 0 0 0 0 0.125 0 0 0 1 0"/>
<feBlend mode="normal" in2="BackgroundImageFix" result="effect1_dropShadow_22139_2864"/>
<feBlend mode="normal" in="SourceGraphic" in2="effect1_dropShadow_22139_2864" result="shape"/>
<feColorMatrix in="SourceAlpha" type="matrix" values="0 0 0 0 0 0 0 0 0 0 0 0 0 0 0 0 0 0 127 0" result="hardAlpha"/>
<feMorphology radius="4" operator="erode" in="SourceAlpha" result="effect2_innerShadow_22139_2864"/>
<feOffset/>
<feGaussianBlur stdDeviation="3"/>
<feComposite in2="hardAlpha" operator="arithmetic" k2="-1" k3="1"/>
<feColorMatrix type="matrix" values="0 0 0 0 1 0 0 0 0 1 0 0 0 0 1 0 0 0 0.25 0"/>
<feBlend mode="normal" in2="shape" result="effect2_innerShadow_22139_2864"/>
</filter>
</defs>
</svg>
