<svg width="13" height="19" viewBox="0 0 13 19" fill="none" xmlns="http://www.w3.org/2000/svg">
<path d="M6.5 9.025C5.88432 9.025 5.29385 8.77478 4.8585 8.32938C4.42315 7.88398 4.17857 7.27989 4.17857 6.65C4.17857 6.02011 4.42315 5.41602 4.8585 4.97062C5.29385 4.52522 5.88432 4.275 6.5 4.275C7.11568 4.275 7.70615 4.52522 8.1415 4.97062C8.57685 5.41602 8.82143 6.02011 8.82143 6.65C8.82143 6.96189 8.76138 7.27073 8.64472 7.55887C8.52806 7.84702 8.35706 8.10884 8.1415 8.32938C7.92593 8.54992 7.67002 8.72486 7.38837 8.84421C7.10672 8.96357 6.80485 9.025 6.5 9.025ZM6.5 0C4.77609 0 3.12279 0.700623 1.90381 1.94774C0.684819 3.19486 0 4.88631 0 6.65C0 11.6375 6.5 19 6.5 19C6.5 19 13 11.6375 13 6.65C13 4.88631 12.3152 3.19486 11.0962 1.94774C9.87721 0.700623 8.22391 0 6.5 0Z" fill="#00A442"/>
</svg>
