<svg width="36" height="36" viewBox="0 0 36 36" fill="none" xmlns="http://www.w3.org/2000/svg">
<rect width="36" height="36" rx="8" fill="#88FF00" fill-opacity="0.3"/>
<g clip-path="url(#clip0_22006_2654)">
<path d="M18.9911 12.8101C19.7662 12.8619 20.4366 12.2756 20.4884 11.5005C20.5402 10.7254 19.9539 10.055 19.1788 10.0032C18.4037 9.95137 17.7333 10.5377 17.6815 11.3128C17.6297 12.0879 18.216 12.7582 18.9911 12.8101ZM14.6454 18.7532C14.5651 18.7197 14.4894 18.676 14.4202 18.6233L13.5073 20.6029L12.8237 20.2877C12.5577 20.165 12.2426 20.2812 12.12 20.5472L10.3157 24.4597C10.1931 24.7257 10.3092 25.0408 10.5753 25.1635L10.8079 25.2708C10.7678 25.308 10.7353 25.3528 10.7124 25.4025C10.615 25.6137 10.7073 25.8638 10.9184 25.9612C11.1296 26.0586 11.3797 25.9664 11.4771 25.7552C11.5001 25.7055 11.513 25.6517 11.5153 25.597L11.7479 25.7043C12.014 25.827 12.3291 25.7108 12.4517 25.4447L14.256 21.5322C14.3658 21.2939 14.2837 21.0167 14.0742 20.8732L15.0156 18.8319C14.8884 18.829 14.7628 18.8023 14.6454 18.7532Z" fill="#007635"/>
<path d="M23.2479 16.0379L21.3416 15.5581L20.4806 14.5664L20.4981 14.3061C20.5331 13.7825 20.137 13.3297 19.6134 13.2947L17.9227 13.1816C17.4183 13.1479 16.9797 13.5143 16.917 14.0093L17.3032 13.8984L15.7431 14.7319C15.6127 14.8016 15.5104 14.9141 15.4534 15.0504L14.4469 17.4576C14.3102 17.7847 14.4645 18.1606 14.7915 18.2973C15.1164 18.4332 15.4936 18.2818 15.6312 17.9528L16.5495 15.7563L17.9081 15.0305L16.9113 15.8728L16.7675 16.2168L16.5861 18.9305L16.5952 18.9311C16.5961 18.9621 16.687 20.7785 16.7313 21.6698L15.2308 24.9058C15.0519 25.2916 15.2197 25.7495 15.6056 25.9284C15.9914 26.1073 16.4492 25.9395 16.6282 25.5537L18.2086 22.1453C18.2611 22.032 18.2853 21.9077 18.2791 21.783L18.1421 19.0345L18.4893 19.0577L19.3414 21.5919L19.6649 25.2967C19.7019 25.7208 20.0758 26.034 20.4991 25.9969C20.9228 25.96 21.2363 25.5865 21.1993 25.1628L20.8679 21.3665C20.8626 21.3057 20.8501 21.2458 20.8306 21.188L20.1517 19.1689L20.1729 19.1703L20.3591 16.3844L20.5046 16.552C20.5908 16.6512 20.7053 16.7216 20.8326 16.7536L22.9347 17.2827C23.2777 17.3691 23.6271 17.1613 23.7137 16.817C23.8002 16.4732 23.5917 16.1244 23.2479 16.0379Z" fill="#007635"/>
</g>
<defs>
<clipPath id="clip0_22006_2654">
<rect width="16" height="16" fill="white" transform="translate(9 10)"/>
</clipPath>
</defs>
</svg>
