<svg width="16" height="16" viewBox="0 0 16 16" fill="none" xmlns="http://www.w3.org/2000/svg">
<path d="M12.2922 10.4755L9.371 11.7425C9.38679 11.8283 9.39499 11.9153 9.3955 12.0025C9.39299 12.4027 9.2318 12.7856 8.94731 13.0672C8.66281 13.3487 8.27825 13.5059 7.878 13.5042H5.208C5.1417 13.5042 5.07811 13.4779 5.03122 13.431C4.98434 13.3841 4.958 13.3206 4.958 13.2542C4.958 13.1879 4.98434 13.1244 5.03122 13.0775C5.07811 13.0306 5.1417 13.0042 5.208 13.0042H7.878C8.01083 13.0063 8.14276 12.982 8.26609 12.9326C8.38942 12.8832 8.50169 12.8098 8.59637 12.7166C8.69105 12.6234 8.76624 12.5123 8.81757 12.3898C8.86889 12.2672 8.89532 12.1357 8.89532 12.0029C8.89532 11.87 8.86889 11.7385 8.81757 11.616C8.76624 11.4934 8.69105 11.3823 8.59637 11.2891C8.50169 11.1959 8.38942 11.1225 8.26609 11.0731C8.14276 11.0238 8.01083 10.9994 7.878 11.0015H5.671C5.42639 11.0227 5.18026 10.9846 4.9535 10.8905C4.18827 10.5122 3.35276 10.2972 2.5 10.259V9.75C2.5 9.6837 2.47366 9.62011 2.42678 9.57322C2.37989 9.52634 2.3163 9.5 2.25 9.5H0.75C0.683696 9.5 0.620107 9.52634 0.573223 9.57322C0.526339 9.62011 0.5 9.6837 0.5 9.75V15.25C0.5 15.3163 0.526339 15.3799 0.573223 15.4268C0.620107 15.4737 0.683696 15.5 0.75 15.5H2.25C2.3163 15.5 2.37989 15.4737 2.42678 15.4268C2.47366 15.3799 2.5 15.3163 2.5 15.25V14.8558C2.5 14.8558 6.775 15.25 6.8625 15.25C7.12458 15.2513 7.3815 15.1771 7.6025 15.0363L13.1145 11.954C13.2883 11.8419 13.4147 11.6696 13.4694 11.4702C13.524 11.2707 13.5032 11.058 13.4108 10.873C13.3108 10.676 13.139 10.5249 12.9309 10.4509C12.7227 10.377 12.4941 10.3856 12.2922 10.4755ZM4.7185 5.25C4.67346 5.42281 4.58313 5.58048 4.45683 5.70674C4.33053 5.833 4.17283 5.92327 4 5.96825V6.78175C4.17283 6.82673 4.33053 6.917 4.45683 7.04326C4.58313 7.16952 4.67346 7.32719 4.7185 7.5H10.2815C10.3265 7.32719 10.4169 7.16952 10.5432 7.04326C10.6695 6.917 10.8272 6.82673 11 6.78175V5.9685C10.8369 5.92508 10.6876 5.84075 10.5662 5.7235L10.0095 6.28025C9.7272 6.55112 9.35221 6.7041 8.961 6.708C8.58342 6.7038 8.22238 6.55239 7.95475 6.286C7.8138 6.1533 7.70219 5.99257 7.6271 5.81415C7.55201 5.63572 7.5151 5.44355 7.51875 5.25H4.7185Z" fill="#007635"/>
<path d="M12.5 4.6695C12.2134 4.73753 11.9146 4.73436 11.6295 4.66025L10.9192 5.3705C11.0098 5.45298 11.1276 5.4991 11.25 5.5C11.3163 5.5 11.3799 5.52634 11.4268 5.57322C11.4737 5.62011 11.5 5.6837 11.5 5.75V7C11.5 7.0663 11.4737 7.12989 11.4268 7.17678C11.3799 7.22366 11.3163 7.25 11.25 7.25C11.1174 7.25013 10.9903 7.30285 10.8966 7.39659C10.8029 7.49033 10.7501 7.61743 10.75 7.75C10.75 7.8163 10.7237 7.87989 10.6768 7.92678C10.6299 7.97366 10.5663 8 10.5 8H4.5C4.4337 8 4.37011 7.97366 4.32322 7.92678C4.27634 7.87989 4.25 7.8163 4.25 7.75C4.24987 7.61743 4.19715 7.49033 4.10341 7.39659C4.00967 7.30285 3.88257 7.25013 3.75 7.25C3.6837 7.25 3.62011 7.22366 3.57322 7.17678C3.52634 7.12989 3.5 7.0663 3.5 7V5.75C3.5 5.6837 3.52634 5.62011 3.57322 5.57322C3.62011 5.52634 3.6837 5.5 3.75 5.5C3.88257 5.49987 4.00967 5.44715 4.10341 5.35341C4.19715 5.25967 4.24987 5.13257 4.25 5C4.25 4.9337 4.27634 4.87011 4.32322 4.82322C4.37011 4.77634 4.4337 4.75 4.5 4.75H7.6185C7.70091 4.5365 7.82683 4.34247 7.98825 4.18025L8.4185 3.75H2.75C2.6837 3.75 2.62011 3.77634 2.57322 3.82322C2.52634 3.87011 2.5 3.9337 2.5 4V8.75C2.5 8.8163 2.52634 8.87989 2.57322 8.92678C2.62011 8.97366 2.6837 9 2.75 9H12.25C12.3163 9 12.3799 8.97366 12.4268 8.92678C12.4737 8.87989 12.5 8.8163 12.5 8.75V4.6695Z" fill="#007635"/>
<path d="M15.25 0.5H14.25C14.1837 0.5 14.1201 0.526339 14.0732 0.573223C14.0263 0.620107 14 0.683696 14 0.75V1H10.104C9.87957 0.999375 9.65725 1.04327 9.4499 1.12913C9.24254 1.215 9.05428 1.34114 8.896 1.50025L7.1465 3.25H8.9185L9.69875 2.46975C9.7459 2.42421 9.80905 2.39901 9.8746 2.39958C9.94015 2.40015 10.0029 2.42644 10.0492 2.4728C10.0956 2.51915 10.1218 2.58185 10.1224 2.6474C10.123 2.71295 10.0978 2.7761 10.0522 2.82325L8.33225 4.54325C8.16694 4.70184 8.05881 4.91072 8.02475 5.13725C8.00403 5.2801 8.0179 5.42584 8.06518 5.56222C8.11247 5.6986 8.1918 5.82164 8.2965 5.921C8.47747 6.09922 8.72096 6.1996 8.97495 6.20067C9.22894 6.20175 9.47328 6.10344 9.65575 5.92675L11.5012 4.08175C11.7191 4.18592 11.9601 4.23195 12.201 4.21534C12.4418 4.19874 12.6743 4.12007 12.8757 3.987C12.9041 3.97005 12.9356 3.9589 12.9684 3.95421C13.0011 3.94951 13.0345 3.95136 13.0665 3.95964C13.0985 3.96792 13.1286 3.98247 13.1549 4.00245C13.1813 4.02243 13.2034 4.04745 13.22 4.07604C13.2366 4.10463 13.2474 4.13624 13.2517 4.16903C13.256 4.20182 13.2538 4.23514 13.2452 4.26707C13.2365 4.29899 13.2216 4.32888 13.2013 4.355C13.181 4.38112 13.1558 4.40296 13.127 4.41925C13.0847 4.44375 13.0425 4.46475 13 4.48625V6.66725C13.3541 6.50126 13.6893 6.29776 14 6.06025V6.25C14 6.3163 14.0263 6.37989 14.0732 6.42678C14.1201 6.47366 14.1837 6.5 14.25 6.5H15.25C15.3163 6.5 15.3799 6.47366 15.4268 6.42678C15.4737 6.37989 15.5 6.3163 15.5 6.25V0.75C15.5 0.683696 15.4737 0.620107 15.4268 0.573223C15.3799 0.526339 15.3163 0.5 15.25 0.5Z" fill="#007635"/>
</svg>
