<svg width="32" height="32" viewBox="0 0 32 32" fill="none" xmlns="http://www.w3.org/2000/svg">
<g filter="url(#filter0_di_22139_3128)">
<rect x="4" y="4" width="24" height="24" rx="12" fill="#00A442" shape-rendering="crispEdges"/>
<path d="M18.492 20.705L18.3243 21.3904C17.8213 21.5889 17.4195 21.7401 17.1203 21.8439C16.8207 21.9482 16.4727 22 16.0762 22C15.4672 22 14.9936 21.8508 14.6558 21.5545C14.318 21.2571 14.149 20.8801 14.149 20.4228C14.149 20.2458 14.1613 20.0637 14.1868 19.8782C14.2125 19.6924 14.2533 19.4832 14.3093 19.2494L14.9379 17.0245C14.9938 16.8114 15.0413 16.6095 15.0794 16.4186C15.118 16.2289 15.1366 16.0544 15.1366 15.8972C15.1366 15.6131 15.0778 15.4143 14.9607 15.3026C14.8436 15.1912 14.6201 15.1346 14.2883 15.1346C14.1258 15.1346 13.9588 15.1606 13.7885 15.211C13.6175 15.2615 13.4713 15.3103 13.3486 15.3557L13.5167 14.6698C13.9285 14.5021 14.3222 14.3585 14.6987 14.2394C15.0752 14.1199 15.431 14.0601 15.7675 14.0601C16.3723 14.0601 16.8389 14.2062 17.1666 14.4986C17.4943 14.7911 17.6581 15.1703 17.6581 15.6376C17.6581 15.7343 17.6474 15.9047 17.6242 16.1481C17.6017 16.3922 17.5596 16.6158 17.4983 16.8191L16.8724 19.0352C16.8211 19.2132 16.7749 19.4167 16.7348 19.6456C16.6934 19.8731 16.6736 20.0469 16.6736 20.1635C16.6736 20.4577 16.7392 20.6586 16.8708 20.7654C17.0033 20.8722 17.2315 20.9254 17.5556 20.9254C17.7078 20.9254 17.881 20.8984 18.0734 20.8454C18.2652 20.7923 18.4052 20.7458 18.492 20.705ZM18.6507 11.4014C18.6507 11.7875 18.5052 12.1172 18.2128 12.3883C17.9211 12.6604 17.5696 12.7966 17.1585 12.7966C16.746 12.7966 16.3937 12.6604 16.0987 12.3883C15.8042 12.1171 15.6566 11.7875 15.6566 11.4014C15.6566 11.016 15.8042 10.6857 16.0987 10.4112C16.3931 10.137 16.7461 10 17.1585 10C17.5695 10 17.9211 10.1373 18.2128 10.4112C18.5054 10.6857 18.6507 11.0161 18.6507 11.4014Z" fill="white"/>
</g>
<defs>
<filter id="filter0_di_22139_3128" x="0" y="0" width="32" height="32" filterUnits="userSpaceOnUse" color-interpolation-filters="sRGB">
<feFlood flood-opacity="0" result="BackgroundImageFix"/>
<feColorMatrix in="SourceAlpha" type="matrix" values="0 0 0 0 0 0 0 0 0 0 0 0 0 0 0 0 0 0 127 0" result="hardAlpha"/>
<feOffset/>
<feGaussianBlur stdDeviation="2"/>
<feComposite in2="hardAlpha" operator="out"/>
<feColorMatrix type="matrix" values="0 0 0 0 0.125 0 0 0 0 0.125 0 0 0 0 0.125 0 0 0 1 0"/>
<feBlend mode="normal" in2="BackgroundImageFix" result="effect1_dropShadow_22139_3128"/>
<feBlend mode="normal" in="SourceGraphic" in2="effect1_dropShadow_22139_3128" result="shape"/>
<feColorMatrix in="SourceAlpha" type="matrix" values="0 0 0 0 0 0 0 0 0 0 0 0 0 0 0 0 0 0 127 0" result="hardAlpha"/>
<feMorphology radius="4" operator="erode" in="SourceAlpha" result="effect2_innerShadow_22139_3128"/>
<feOffset/>
<feGaussianBlur stdDeviation="3"/>
<feComposite in2="hardAlpha" operator="arithmetic" k2="-1" k3="1"/>
<feColorMatrix type="matrix" values="0 0 0 0 1 0 0 0 0 1 0 0 0 0 1 0 0 0 0.25 0"/>
<feBlend mode="normal" in2="shape" result="effect2_innerShadow_22139_3128"/>
</filter>
</defs>
</svg>
