<svg width="32" height="32" viewBox="0 0 32 32" fill="none" xmlns="http://www.w3.org/2000/svg">
<g filter="url(#filter0_di_22139_3138)">
<rect x="4" y="4" width="24" height="24" rx="12" fill="#00A442" shape-rendering="crispEdges"/>
<g clip-path="url(#clip0_22139_3138)">
<path d="M17.9086 11.6045H15.7283V11.3753H18.0264C18.0995 11.3753 18.1695 11.4044 18.2211 11.456C18.2728 11.5077 18.3018 11.5777 18.3019 11.6507V16.3332C18.2067 16.3561 18.1243 16.4156 18.0727 16.4988V11.7685C18.0727 11.725 18.0554 11.6833 18.0246 11.6525C17.9939 11.6218 17.9521 11.6045 17.9086 11.6045ZM17.7446 19.9579V18.2835C17.5415 18.5151 17.4295 18.8127 17.4295 19.1207C17.4295 19.4287 17.5415 19.7263 17.7446 19.9579ZM13.7466 11.8499H15.3824C15.3871 11.8499 15.3916 11.848 15.395 11.8447C15.3983 11.8414 15.4002 11.8368 15.4002 11.8321V11.1207C15.4002 11.116 15.3983 11.1115 15.395 11.1082C15.3916 11.1048 15.3871 11.103 15.3824 11.103H14.8691C14.8256 11.103 14.7839 11.0857 14.7531 11.0549C14.7224 11.0241 14.7051 10.9824 14.7051 10.9389V10.5497C14.7051 10.5124 14.6903 10.4767 14.6639 10.4503C14.6376 10.424 14.6018 10.4092 14.5646 10.4092C14.5273 10.4092 14.4916 10.424 14.4652 10.4503C14.4389 10.4767 14.4241 10.5124 14.4241 10.5497V10.9389C14.4241 10.9824 14.4068 11.0241 14.376 11.0549C14.3453 11.0857 14.3036 11.103 14.26 11.103H13.7468C13.742 11.103 13.7375 11.1048 13.7342 11.1082C13.7309 11.1115 13.729 11.116 13.729 11.1207V11.8321C13.729 11.8368 13.7309 11.8413 13.7342 11.8447C13.7375 11.848 13.742 11.8499 13.7466 11.8499ZM21.1731 18.8081V19.4302C21.1733 19.4384 21.1711 19.4465 21.167 19.4536C21.1629 19.4607 21.1569 19.4666 21.1497 19.4705C21.0732 19.509 20.9921 19.5373 20.9083 19.5547C20.8452 19.5686 20.7868 19.5985 20.7385 19.6414C20.6902 19.6843 20.6537 19.7388 20.6324 19.7997C20.6081 19.8686 20.5802 19.9361 20.5487 20.0019C20.5212 20.0598 20.5089 20.1237 20.513 20.1876C20.5171 20.2515 20.5375 20.3134 20.5722 20.3672C20.6198 20.4397 20.6569 20.5185 20.6825 20.6014C20.6848 20.6092 20.6849 20.6175 20.6827 20.6254C20.6806 20.6333 20.6764 20.6405 20.6705 20.6462L20.2305 21.0863C20.2248 21.0921 20.2176 21.0964 20.2097 21.0985C20.2018 21.1006 20.1934 21.1004 20.1856 21.0981C20.1043 21.0713 20.0269 21.0339 19.9553 20.9869C19.9008 20.9522 19.8383 20.932 19.7738 20.9282C19.7093 20.9244 19.6448 20.9371 19.5866 20.9652C19.5208 20.9968 19.4534 21.0248 19.3846 21.0491C19.3243 21.0706 19.2704 21.1071 19.2282 21.1552C19.186 21.2033 19.1567 21.2614 19.1432 21.324C19.1256 21.4088 19.0961 21.4908 19.0556 21.5675C19.0516 21.5746 19.0458 21.5805 19.0387 21.5846C19.0316 21.5887 19.0236 21.5908 19.0154 21.5907H18.3935C18.3853 21.5909 18.3772 21.5888 18.3701 21.5846C18.363 21.5805 18.3572 21.5745 18.3533 21.5673C18.3148 21.4909 18.2865 21.4097 18.2691 21.3259C18.2551 21.2628 18.2253 21.2044 18.1824 21.1561C18.1395 21.1078 18.085 21.0713 18.0241 21.05C17.9552 21.0257 17.8877 20.9978 17.8219 20.9663C17.764 20.9388 17.7001 20.9265 17.6362 20.9306C17.5722 20.9347 17.5104 20.955 17.4566 20.9897C17.3841 21.0374 17.3053 21.0745 17.2224 21.1001C17.2145 21.1024 17.2062 21.1024 17.1983 21.1003C17.1905 21.0982 17.1833 21.094 17.1776 21.0881L16.7375 20.6481C16.7317 20.6424 16.7274 20.6352 16.7253 20.6273C16.7232 20.6194 16.7233 20.611 16.7256 20.6032C16.7525 20.5219 16.7899 20.4445 16.8369 20.3729C16.8716 20.3184 16.8918 20.2559 16.8956 20.1914C16.8994 20.1269 16.8867 20.0624 16.8586 20.0042C16.827 19.9384 16.799 19.871 16.7746 19.8021C16.7532 19.7418 16.7166 19.688 16.6686 19.6458C16.6205 19.6035 16.5624 19.5743 16.4998 19.5607C16.4149 19.5432 16.3329 19.5137 16.2563 19.4732C16.2492 19.4692 16.2433 19.4633 16.2392 19.4563C16.2351 19.4492 16.233 19.4411 16.233 19.433V18.8112C16.2329 18.803 16.235 18.7949 16.2391 18.7878C16.2433 18.7807 16.2493 18.7748 16.2565 18.7709C16.3329 18.7324 16.4141 18.7041 16.4979 18.6867C16.5609 18.6727 16.6193 18.6429 16.6675 18.6C16.7158 18.5571 16.7523 18.5026 16.7736 18.4417C16.7978 18.3728 16.8258 18.3053 16.8573 18.2395C16.8848 18.1816 16.8971 18.1177 16.893 18.0538C16.8889 17.9898 16.8685 17.928 16.8338 17.8742C16.7862 17.8017 16.749 17.7229 16.7235 17.64C16.7212 17.6322 16.7211 17.6239 16.7232 17.616C16.7253 17.6081 16.7295 17.6009 16.7354 17.5952L17.1755 17.1552C17.1812 17.1493 17.1884 17.1451 17.1963 17.143C17.2042 17.1409 17.2125 17.141 17.2204 17.1433C17.3017 17.1701 17.3791 17.2075 17.4507 17.2545C17.5052 17.2892 17.5677 17.3094 17.6322 17.3132C17.6967 17.317 17.7611 17.3043 17.8193 17.2762C17.8851 17.2446 17.9526 17.2166 18.0215 17.1923C18.0818 17.1708 18.1356 17.1343 18.1778 17.0862C18.2201 17.0381 18.2493 16.98 18.2629 16.9174C18.2804 16.8325 18.3099 16.7506 18.3504 16.6739C18.3544 16.6668 18.3602 16.6609 18.3673 16.6568C18.3744 16.6527 18.3824 16.6506 18.3906 16.6507H19.0127C19.021 16.6505 19.0291 16.6526 19.0362 16.6568C19.0433 16.6609 19.0491 16.6669 19.053 16.6741C19.0915 16.7505 19.1198 16.8317 19.1372 16.9155C19.1512 16.9785 19.181 17.0369 19.2239 17.0852C19.2668 17.1334 19.3212 17.1699 19.3822 17.1913C19.451 17.2155 19.5185 17.2435 19.5844 17.2749C19.6423 17.3025 19.7062 17.3148 19.7701 17.3107C19.834 17.3066 19.8958 17.2862 19.9497 17.2515C20.0222 17.2039 20.101 17.1667 20.1839 17.1411C20.1917 17.1389 20.2 17.1388 20.2079 17.1409C20.2158 17.143 20.223 17.1472 20.2287 17.1531L20.6687 17.5931C20.6746 17.5988 20.6788 17.606 20.6809 17.614C20.683 17.6219 20.6829 17.6302 20.6806 17.6381C20.6538 17.7194 20.6164 17.7968 20.5694 17.8684C20.5347 17.9229 20.5144 17.9853 20.5106 18.0499C20.5068 18.1144 20.5196 18.1788 20.5477 18.237C20.5793 18.3028 20.6073 18.3703 20.6316 18.4391C20.6531 18.4994 20.6896 18.5532 20.7377 18.5955C20.7858 18.6377 20.8439 18.667 20.9064 18.6805C20.9913 18.6981 21.0733 18.7275 21.15 18.768C21.1571 18.772 21.1629 18.7779 21.167 18.7849C21.1711 18.792 21.1732 18.8 21.1731 18.8081ZM20.3048 19.1207C20.3048 18.8039 20.2108 18.4942 20.0348 18.2308C19.8588 17.9674 19.6087 17.7621 19.316 17.6409C19.0234 17.5197 18.7013 17.488 18.3906 17.5498C18.0799 17.6116 17.7945 17.7641 17.5705 17.9881C17.3465 18.2121 17.194 18.4975 17.1322 18.8082C17.0704 19.1189 17.1021 19.441 17.2233 19.7336C17.3445 20.0263 17.5498 20.2765 17.8132 20.4524C18.0766 20.6284 18.3863 20.7224 18.7031 20.7224C19.1277 20.7219 19.5348 20.553 19.8351 20.2527C20.1354 19.9525 20.3043 19.5453 20.3048 19.1207ZM12.818 13.5882H12.0997V14.3066H12.818V13.5882ZM12.818 18.0273H12.0997V18.7456H12.818V18.0273ZM12.818 15.8078H12.0997V16.5261H12.818V15.8078ZM16.413 20.7292H11.2204C11.1769 20.7292 11.1352 20.7119 11.1044 20.6812C11.0737 20.6504 11.0564 20.6087 11.0564 20.5651V11.7685C11.0564 11.725 11.0737 11.6833 11.1044 11.6525C11.1352 11.6218 11.1769 11.6045 11.2204 11.6045H13.4007V11.3753H11.1026C11.0296 11.3753 10.9596 11.4044 10.9079 11.456C10.8563 11.5077 10.8272 11.5777 10.8271 11.6507V20.683C10.8272 20.756 10.8563 20.826 10.9079 20.8777C10.9596 20.9293 11.0296 20.9583 11.1026 20.9584H16.5836L16.5055 20.8804C16.4631 20.8381 16.4314 20.7862 16.413 20.7292ZM11.3845 11.9326H13.4158C13.4374 12.0035 13.4812 12.0657 13.5407 12.1098C13.6003 12.154 13.6725 12.1779 13.7466 12.178H15.3824C15.4566 12.1779 15.5287 12.154 15.5883 12.1098C15.6479 12.0657 15.6917 12.0035 15.7133 11.9326H17.7446V16.9495C17.722 16.9595 17.6995 16.9698 17.6773 16.9804C17.6699 16.9843 17.6615 16.9862 17.6532 16.986C17.6448 16.9858 17.6366 16.9835 17.6293 16.9793C17.5336 16.9166 17.4301 16.8668 17.3215 16.8311C17.2561 16.8099 17.1862 16.8073 17.1194 16.8236C17.0527 16.8398 16.9917 16.8743 16.9434 16.9231L16.5034 17.3632C16.4554 17.4109 16.4213 17.4707 16.4048 17.5362C16.3883 17.6018 16.3899 17.6706 16.4094 17.7353C16.444 17.8478 16.4943 17.9548 16.5588 18.0532C16.563 18.0598 16.5655 18.0673 16.5659 18.0752C16.5664 18.083 16.5648 18.0908 16.5613 18.0979C16.5247 18.1744 16.4923 18.2528 16.4641 18.3328C16.4616 18.3408 16.4571 18.348 16.451 18.3538C16.445 18.3596 16.4375 18.3637 16.4294 18.3658C16.3175 18.3892 16.2092 18.4271 16.1072 18.4786C16.046 18.5099 15.9947 18.5576 15.959 18.6163C15.9232 18.675 15.9045 18.7425 15.9049 18.8112V19.4333C15.9047 19.5009 15.9229 19.5673 15.9576 19.6254C15.9922 19.6835 16.042 19.731 16.1017 19.763C16.2056 19.818 16.3167 19.8581 16.4319 19.8821C16.4395 19.8837 16.4466 19.8873 16.4525 19.8925C16.4583 19.8977 16.4627 19.9043 16.4653 19.9118C16.4936 19.9917 16.5261 20.07 16.5628 20.1465C16.5667 20.1539 16.5686 20.1622 16.5684 20.1706C16.5682 20.179 16.5659 20.1872 16.5616 20.1945C16.519 20.26 16.4821 20.3292 16.4515 20.4011H11.3845V11.9326ZM13.6949 13.5695C13.6949 13.613 13.7122 13.6547 13.743 13.6855C13.7737 13.7163 13.8155 13.7336 13.859 13.7336H16.8094C16.8529 13.7336 16.8946 13.7163 16.9254 13.6855C16.9562 13.6547 16.9735 13.613 16.9735 13.5695C16.9735 13.526 16.9562 13.4843 16.9254 13.4535C16.8946 13.4227 16.8529 13.4054 16.8094 13.4054H13.859C13.8155 13.4054 13.7737 13.4227 13.743 13.4535C13.7122 13.4843 13.6949 13.526 13.6949 13.5695ZM13.6949 14.2671C13.6949 14.3106 13.7122 14.3524 13.743 14.3831C13.7737 14.4139 13.8155 14.4312 13.859 14.4312H16.8094C16.8529 14.4312 16.8946 14.4139 16.9254 14.3831C16.9562 14.3524 16.9735 14.3106 16.9735 14.2671C16.9735 14.2236 16.9562 14.1819 16.9254 14.1511C16.8946 14.1204 16.8529 14.1031 16.8094 14.1031H13.859C13.8155 14.1031 13.7738 14.1203 13.743 14.1511C13.7122 14.1818 13.6949 14.2235 13.6949 14.267V14.2671ZM13.6949 15.789C13.6949 15.8326 13.7122 15.8743 13.743 15.9051C13.7737 15.9358 13.8155 15.9531 13.859 15.9531H16.8094C16.8529 15.9531 16.8946 15.9358 16.9254 15.9051C16.9562 15.8743 16.9735 15.8326 16.9735 15.789C16.9735 15.7455 16.9562 15.7038 16.9254 15.673C16.8946 15.6423 16.8529 15.625 16.8094 15.625H13.859C13.8155 15.625 13.7737 15.6423 13.743 15.673C13.7122 15.7038 13.6949 15.7455 13.6949 15.789V15.789ZM13.6949 16.4867C13.6949 16.5302 13.7122 16.5719 13.743 16.6027C13.7737 16.6335 13.8155 16.6508 13.859 16.6508H16.8094C16.8529 16.6508 16.8946 16.6335 16.9254 16.6027C16.9562 16.5719 16.9735 16.5302 16.9735 16.4867C16.9735 16.4432 16.9562 16.4014 16.9254 16.3707C16.8946 16.3399 16.8529 16.3226 16.8094 16.3226H13.859C13.8155 16.3226 13.7738 16.3399 13.743 16.3706C13.7122 16.4014 13.6949 16.4431 13.6949 16.4866V16.4867ZM13.6949 18.0086C13.6949 18.0521 13.7122 18.0938 13.743 18.1246C13.7737 18.1554 13.8155 18.1727 13.859 18.1727H15.5595C15.603 18.1727 15.6447 18.1554 15.6755 18.1246C15.7063 18.0938 15.7236 18.0521 15.7236 18.0086C15.7236 17.9651 15.7063 17.9234 15.6755 17.8926C15.6447 17.8618 15.603 17.8445 15.5595 17.8445H13.859C13.8155 17.8445 13.7737 17.8618 13.743 17.8926C13.7122 17.9233 13.6949 17.9651 13.6949 18.0086V18.0086ZM13.6949 18.7062C13.6949 18.7497 13.7122 18.7915 13.743 18.8222C13.7737 18.853 13.8155 18.8703 13.859 18.8703H15.5595C15.603 18.8703 15.6447 18.853 15.6755 18.8222C15.7063 18.7915 15.7236 18.7497 15.7236 18.7062C15.7236 18.6627 15.7063 18.621 15.6755 18.5902C15.6447 18.5594 15.603 18.5422 15.5595 18.5422H13.859C13.8155 18.5422 13.7738 18.5594 13.743 18.5902C13.7122 18.6209 13.6949 18.6626 13.6949 18.7061V18.7062ZM11.7716 14.4705C11.7716 14.514 11.7888 14.5558 11.8196 14.5865C11.8504 14.6173 11.8921 14.6346 11.9356 14.6346H12.9821C13.0256 14.6346 13.0673 14.6173 13.0981 14.5865C13.1289 14.5558 13.1461 14.514 13.1461 14.4705V13.4242C13.1461 13.3807 13.1289 13.3389 13.0981 13.3082C13.0673 13.2774 13.0256 13.2601 12.9821 13.2601H11.9356C11.8921 13.2601 11.8504 13.2774 11.8196 13.3082C11.7888 13.3389 11.7716 13.3807 11.7716 13.4242V14.4705ZM11.7716 16.6901C11.7716 16.7336 11.7888 16.7753 11.8196 16.8061C11.8504 16.8368 11.8921 16.8541 11.9356 16.8541H12.9821C13.0256 16.8541 13.0673 16.8368 13.0981 16.8061C13.1289 16.7753 13.1461 16.7336 13.1461 16.6901V15.6437C13.1461 15.6002 13.1289 15.5585 13.0981 15.5277C13.0673 15.4969 13.0256 15.4796 12.9821 15.4796H11.9356C11.8921 15.4796 11.8504 15.4969 11.8196 15.5277C11.7888 15.5585 11.7716 15.6002 11.7716 15.6437V16.6901ZM11.7716 18.9096C11.7716 18.9531 11.7888 18.9948 11.8196 19.0256C11.8504 19.0564 11.8921 19.0736 11.9356 19.0736H12.9821C13.0256 19.0736 13.0673 19.0564 13.0981 19.0256C13.1289 18.9948 13.1461 18.9531 13.1461 18.9096V17.8632C13.1461 17.8197 13.1289 17.778 13.0981 17.7472C13.0673 17.7165 13.0256 17.6992 12.9821 17.6992H11.9356C11.8921 17.6992 11.8504 17.7165 11.8196 17.7472C11.7888 17.778 11.7716 17.8197 11.7716 17.8632V18.9096ZM18.0727 20.2266C18.1455 20.2683 18.2223 20.3026 18.3019 20.3291V17.9122C18.2223 17.9387 18.1455 17.9731 18.0727 18.0148V20.2266Z" fill="white"/>
</g>
</g>
<defs>
<filter id="filter0_di_22139_3138" x="0" y="0" width="32" height="32" filterUnits="userSpaceOnUse" color-interpolation-filters="sRGB">
<feFlood flood-opacity="0" result="BackgroundImageFix"/>
<feColorMatrix in="SourceAlpha" type="matrix" values="0 0 0 0 0 0 0 0 0 0 0 0 0 0 0 0 0 0 127 0" result="hardAlpha"/>
<feOffset/>
<feGaussianBlur stdDeviation="2"/>
<feComposite in2="hardAlpha" operator="out"/>
<feColorMatrix type="matrix" values="0 0 0 0 0.125 0 0 0 0 0.125 0 0 0 0 0.125 0 0 0 1 0"/>
<feBlend mode="normal" in2="BackgroundImageFix" result="effect1_dropShadow_22139_3138"/>
<feBlend mode="normal" in="SourceGraphic" in2="effect1_dropShadow_22139_3138" result="shape"/>
<feColorMatrix in="SourceAlpha" type="matrix" values="0 0 0 0 0 0 0 0 0 0 0 0 0 0 0 0 0 0 127 0" result="hardAlpha"/>
<feMorphology radius="4" operator="erode" in="SourceAlpha" result="effect2_innerShadow_22139_3138"/>
<feOffset/>
<feGaussianBlur stdDeviation="3"/>
<feComposite in2="hardAlpha" operator="arithmetic" k2="-1" k3="1"/>
<feColorMatrix type="matrix" values="0 0 0 0 1 0 0 0 0 1 0 0 0 0 1 0 0 0 0.25 0"/>
<feBlend mode="normal" in2="shape" result="effect2_innerShadow_22139_3138"/>
</filter>
<clipPath id="clip0_22139_3138">
<rect width="12" height="12" fill="white" transform="translate(10 10)"/>
</clipPath>
</defs>
</svg>
