<svg width="32" height="32" viewBox="0 0 32 32" fill="none" xmlns="http://www.w3.org/2000/svg">
<g filter="url(#filter0_di_22139_3148)">
<rect x="4" y="4" width="24" height="24" rx="12" fill="#00A442" shape-rendering="crispEdges"/>
<path d="M20.091 12.0907C19.4205 12.0193 18.7606 11.8701 18.1245 11.6462C17.5419 11.4404 16.983 11.1727 16.4575 10.8477C16.3198 10.7634 16.1615 10.7188 16 10.7188C15.8385 10.7188 15.6802 10.7634 15.5425 10.8477C15.0167 11.1725 14.4577 11.4402 13.875 11.6462C13.2394 11.87 12.58 12.0192 11.91 12.0907C11.6947 12.1125 11.4952 12.2135 11.3502 12.3741C11.2051 12.5346 11.1249 12.7433 11.125 12.9597V15.5572C11.1253 16.5157 11.3818 17.4567 11.868 18.2828C12.3541 19.1089 13.0522 19.79 13.89 20.2557L15.575 21.1922C15.7048 21.2652 15.8511 21.3035 16 21.3035C16.1489 21.3035 16.2952 21.2652 16.425 21.1922L18.11 20.2557C18.9478 19.79 19.6458 19.1089 20.132 18.2828C20.6181 17.4567 20.8746 16.5157 20.875 15.5572V12.9602C20.8753 12.7438 20.7952 12.5351 20.6504 12.3744C20.5056 12.2136 20.3062 12.1129 20.091 12.0907ZM19.588 15.6872C19.5877 16.3906 19.3993 17.0812 19.0425 17.6874C18.6857 18.2936 18.1733 18.7935 17.5585 19.1352L16.3555 19.8037C16.2467 19.8641 16.1244 19.896 16 19.8962C15.8759 19.8963 15.7539 19.8646 15.6455 19.8042L14.441 19.1352C13.8264 18.7933 13.3143 18.2934 12.9576 17.6872C12.601 17.081 12.4128 16.3905 12.4125 15.6872V13.8327C12.4122 13.6517 12.4791 13.477 12.6004 13.3426C12.7216 13.2082 12.8884 13.1236 13.0685 13.1052C13.5387 13.0552 14.0015 12.9507 14.4475 12.7937C14.8564 12.6492 15.2486 12.4613 15.6175 12.2332C15.7327 12.1628 15.865 12.1256 16 12.1256C16.135 12.1256 16.2673 12.1628 16.3825 12.2332C16.7515 12.4608 17.1437 12.6486 17.5525 12.7932C17.9989 12.9503 18.462 13.055 18.9325 13.1052C19.1124 13.1238 19.279 13.2085 19.4 13.3429C19.521 13.4773 19.5878 13.6519 19.5875 13.8327L19.588 15.6872Z" fill="white"/>
<path d="M16.0005 12.8789C15.5894 13.132 15.1526 13.3406 14.6975 13.5014C14.1961 13.678 13.676 13.7956 13.1475 13.8519L13.1625 15.6879C13.1628 16.2576 13.3153 16.817 13.6042 17.308C13.8932 17.799 14.3081 18.204 14.806 18.4809L16.0095 19.1494L17.1945 18.4809C17.6925 18.204 18.1074 17.7991 18.3965 17.3081C18.6855 16.817 18.8381 16.2577 18.8385 15.6879V13.8334C18.3144 13.7909 17.7983 13.6792 17.3035 13.5014C16.8483 13.3406 16.4116 13.1319 16.0005 12.8789Z" fill="white"/>
</g>
<defs>
<filter id="filter0_di_22139_3148" x="0" y="0" width="32" height="32" filterUnits="userSpaceOnUse" color-interpolation-filters="sRGB">
<feFlood flood-opacity="0" result="BackgroundImageFix"/>
<feColorMatrix in="SourceAlpha" type="matrix" values="0 0 0 0 0 0 0 0 0 0 0 0 0 0 0 0 0 0 127 0" result="hardAlpha"/>
<feOffset/>
<feGaussianBlur stdDeviation="2"/>
<feComposite in2="hardAlpha" operator="out"/>
<feColorMatrix type="matrix" values="0 0 0 0 0.125 0 0 0 0 0.125 0 0 0 0 0.125 0 0 0 1 0"/>
<feBlend mode="normal" in2="BackgroundImageFix" result="effect1_dropShadow_22139_3148"/>
<feBlend mode="normal" in="SourceGraphic" in2="effect1_dropShadow_22139_3148" result="shape"/>
<feColorMatrix in="SourceAlpha" type="matrix" values="0 0 0 0 0 0 0 0 0 0 0 0 0 0 0 0 0 0 127 0" result="hardAlpha"/>
<feMorphology radius="4" operator="erode" in="SourceAlpha" result="effect2_innerShadow_22139_3148"/>
<feOffset/>
<feGaussianBlur stdDeviation="3"/>
<feComposite in2="hardAlpha" operator="arithmetic" k2="-1" k3="1"/>
<feColorMatrix type="matrix" values="0 0 0 0 1 0 0 0 0 1 0 0 0 0 1 0 0 0 0.25 0"/>
<feBlend mode="normal" in2="shape" result="effect2_innerShadow_22139_3148"/>
</filter>
</defs>
</svg>
