<svg width="16" height="16" viewBox="0 0 16 16" fill="none" xmlns="http://www.w3.org/2000/svg">
<g clip-path="url(#clip0_22085_1947)">
<path d="M14.909 13.0909H12.3636C10.7596 13.0909 9.45457 11.7859 9.45457 10.1819C9.45457 8.57788 10.7596 7.27287 12.3636 7.27287H14.909C14.9568 7.2729 15.0041 7.26351 15.0482 7.24525C15.0924 7.22699 15.1325 7.2002 15.1662 7.16643C15.2 7.13266 15.2268 7.09256 15.2451 7.04842C15.2633 7.00429 15.2727 6.95699 15.2727 6.90923V5.81833C15.2727 5.0558 14.6812 4.43566 13.9339 4.37553L11.8455 0.727861C11.652 0.390503 11.3395 0.149382 10.9656 0.0492583C10.5934 -0.0501832 10.2042 0.00204321 9.87112 0.195915L2.71204 4.3638H1.45469C0.652507 4.3638 0.000154495 5.01612 0.000154495 5.81833V14.5455C0.000154495 15.3476 0.652473 16 1.45469 16H13.8181C14.6203 16 15.2727 15.3477 15.2727 14.5455V13.4546C15.2727 13.4068 15.2633 13.3595 15.2451 13.3154C15.2268 13.2712 15.2 13.2311 15.1662 13.1974C15.1325 13.1636 15.0924 13.1368 15.0482 13.1185C15.0041 13.1003 14.9568 13.0909 14.909 13.0909ZM12.2965 2.97987L13.0888 4.3638H9.91942L12.2965 2.97987ZM4.15747 4.3638L10.2372 0.824439C10.4016 0.728202 10.5937 0.702634 10.7773 0.751656C10.9631 0.80136 11.1179 0.921392 11.2141 1.08935L11.2149 1.09068L5.59305 4.3638H4.15747Z" fill="white"/>
<path d="M14.909 8H12.3635C11.1604 8 10.1818 8.97867 10.1818 10.1818C10.1818 11.3849 11.1604 12.3636 12.3635 12.3636H14.909C15.5105 12.3636 15.9999 11.8742 15.9999 11.2727V9.09089C15.9999 8.48933 15.5105 8 14.909 8ZM12.3635 10.909C11.9626 10.909 11.6363 10.5827 11.6363 10.1818C11.6363 9.78088 11.9626 9.45453 12.3635 9.45453C12.7645 9.45453 13.0908 9.78088 13.0908 10.1818C13.0908 10.5827 12.7645 10.909 12.3635 10.909Z" fill="white"/>
</g>
<defs>
<clipPath id="clip0_22085_1947">
<rect width="16" height="16" fill="white"/>
</clipPath>
</defs>
</svg>
