<svg width="76" height="76" viewBox="0 0 76 76" fill="none" xmlns="http://www.w3.org/2000/svg">
<g filter="url(#filter0_d_20008_226)">
<circle cx="37" cy="36" r="30" fill="url(#paint0_linear_20008_226)"/>
</g>
<path fill-rule="evenodd" clip-rule="evenodd" d="M24.7809 37.6458H45.0169L38.1433 44.443C37.5364 45.0621 37.5492 46.0517 38.1625 46.6628C38.7805 47.2693 39.7812 47.2819 40.4072 46.6818L50.014 37.1818C50.315 36.8858 50.4831 36.4836 50.4831 36.0688V36.0624C50.4831 35.8582 50.4399 35.6476 50.3582 35.456C50.2766 35.2644 50.1581 35.0918 50.014 34.943L40.4072 25.443C39.7748 24.8429 38.7805 24.8556 38.1625 25.462C37.5428 26.0732 37.5364 27.0628 38.1433 27.6818L45.0169 34.4791H24.7809C23.8987 34.4791 23.1797 35.19 23.1797 36.0624C23.1797 36.9348 23.8987 37.6458 24.7809 37.6458Z" fill="white"/>
<defs>
<filter id="filter0_d_20008_226" x="0" y="0" width="76" height="76" filterUnits="userSpaceOnUse" color-interpolation-filters="sRGB">
<feFlood flood-opacity="0" result="BackgroundImageFix"/>
<feColorMatrix in="SourceAlpha" type="matrix" values="0 0 0 0 0 0 0 0 0 0 0 0 0 0 0 0 0 0 127 0" result="hardAlpha"/>
<feOffset dx="1" dy="2"/>
<feGaussianBlur stdDeviation="4"/>
<feColorMatrix type="matrix" values="0 0 0 0 0 0 0 0 0 0 0 0 0 0 0 0 0 0 0.3 0"/>
<feBlend mode="normal" in2="BackgroundImageFix" result="effect1_dropShadow_20008_226"/>
<feBlend mode="normal" in="SourceGraphic" in2="effect1_dropShadow_20008_226" result="shape"/>
</filter>
<linearGradient id="paint0_linear_20008_226" x1="7" y1="36" x2="67" y2="36" gradientUnits="userSpaceOnUse">
<stop stop-color="#1BB600"/>
<stop offset="0.471154" stop-color="#007635"/>
<stop offset="1" stop-color="#01AF44"/>
</linearGradient>
</defs>
</svg>
