<svg width="40" height="40" viewBox="0 0 40 40" fill="none" xmlns="http://www.w3.org/2000/svg">
<rect width="40" height="40" rx="20" fill="white" fill-opacity="0.1"/>
<g clip-path="url(#clip0_22386_4213)">
<path d="M24.8947 24.7125C24.8486 24.6759 21.5 22.2622 20.5809 22.4355C20.1421 22.5131 19.8913 22.8124 19.3878 23.4114C19.3068 23.5082 19.1122 23.7399 18.9609 23.9047C18.6427 23.801 18.3324 23.6747 18.0322 23.5268C16.4828 22.7724 15.2309 21.5206 14.4766 19.9712C14.3286 19.671 14.2023 19.3607 14.0986 19.0425C14.264 18.8906 14.4957 18.696 14.5947 18.6127C15.191 18.1121 15.4908 17.8612 15.5684 17.4214C15.7276 16.5101 13.3156 13.1385 13.2903 13.1081C13.1809 12.9518 13.0381 12.8217 12.8722 12.7274C12.7063 12.633 12.5216 12.5767 12.3312 12.5625C11.3536 12.5625 8.5625 16.1833 8.5625 16.7931C8.5625 16.8285 8.61369 20.4307 13.0557 24.9493C17.5698 29.3863 21.1715 29.4375 21.2069 29.4375C21.8173 29.4375 25.4375 26.6464 25.4375 25.6687C25.4235 25.4791 25.3675 25.295 25.2736 25.1296C25.1797 24.9642 25.0503 24.8218 24.8947 24.7125Z" fill="#007635"/>
</g>
<g clip-path="url(#clip1_22386_4213)">
<path d="M29.7586 10.8208H22.4324C21.6425 10.8208 21 11.4947 21 12.3233V19.0575C21 19.3765 21.3439 19.5562 21.5866 19.3744L23.6268 17.8474C23.798 17.7195 23.9994 17.6518 24.2097 17.6518H28.6972C29.4872 17.6518 30.1296 16.9778 30.1296 16.1492V11.2101C30.1296 10.9952 29.9634 10.8208 29.7586 10.8208ZM27.956 15.5363H23.6684C23.4636 15.5363 23.2973 15.3622 23.2973 15.147C23.2973 14.9322 23.4636 14.7578 23.6684 14.7578H27.956C28.1609 14.7578 28.3271 14.9322 28.3271 15.147C28.3271 15.3622 28.1609 15.5363 27.956 15.5363ZM27.956 13.7197H23.6684C23.4636 13.7197 23.2973 13.5456 23.2973 13.3305C23.2973 13.1156 23.4636 12.9412 23.6684 12.9412H27.956C28.1609 12.9412 28.3271 13.1156 28.3271 13.3305C28.3271 13.5456 28.1609 13.7197 27.956 13.7197Z" fill="#007635"/>
</g>
<defs>
<clipPath id="clip0_22386_4213">
<rect width="18" height="18" fill="white" transform="translate(8 12)"/>
</clipPath>
<clipPath id="clip1_22386_4213">
<rect width="10" height="10" fill="white" transform="translate(21 10)"/>
</clipPath>
</defs>
</svg>
