<svg width="100" height="100" viewBox="0 0 100 100" fill="none" xmlns="http://www.w3.org/2000/svg">
<path fill-rule="evenodd" clip-rule="evenodd" d="M20.418 45.6255C20.16 45.06 20.0305 44.401 20.0305 43.649C20.0305 43.256 20.059 42.8935 20.115 42.5595H13.8675L15.7565 46.0245H20.6295C20.5525 45.8995 20.4825 45.7665 20.4175 45.6255H20.418ZM81.205 52.0865L82.8015 49.1985H61.9055C61.8665 48.1165 61.6715 47.045 61.3255 46.0175H66.592C66.9875 46.0185 67.3835 46.019 67.7795 46.019C67.653 45.842 67.5405 45.646 67.4425 45.4315C67.1845 44.866 67.055 44.207 67.055 43.455C67.055 43.1375 67.073 42.8385 67.1105 42.5595H59.286C58.1695 41.177 56.7575 40.058 55.1525 39.285C54.8 39.114 54.441 38.962 54.0745 38.8275C52.7765 38.348 51.4005 38.0975 50.009 38.086C48.6125 38.0955 47.2325 38.3475 45.93 38.8275C45.566 38.9595 45.209 39.112 44.859 39.28C43.2515 40.0555 41.837 41.174 40.7205 42.559H31.7845C31.8505 42.7015 31.9095 42.854 31.962 43.0165C32.1175 43.4985 32.1955 43.998 32.1955 44.514C32.1955 45.0585 32.12 45.566 31.9695 46.035L33.657 46.0375H33.933V46.024H38.681C38.406 47.0675 38.2125 48.1315 38.101 49.205H17.205L18.8015 52.093H38.2465C38.3805 53.048 38.6765 53.976 39.1175 54.8355H20.397L21.85 57.4365H40.422C40.422 57.4165 40.4265 57.398 40.4335 57.38C40.44 57.364 40.4495 57.348 40.463 57.3345C40.477 57.321 40.4925 57.3095 40.5105 57.3025C40.5285 57.2955 40.547 57.2935 40.5655 57.2935C41.659 58.751 43.087 59.931 44.7285 60.7335C46.37 61.5385 48.178 61.941 50.0085 61.9115C51.8275 61.8915 53.617 61.466 55.2495 60.668C56.882 59.8675 58.312 58.7145 59.4395 57.294L59.585 57.437H78.16L79.613 54.836H60.8905C61.334 53.9765 61.627 53.049 61.7615 52.0935L81.2045 52.0865H81.205ZM58.5835 53.6625C58.1105 54.8015 57.4145 55.8385 56.539 56.7115C55.6615 57.585 54.6225 58.2785 53.4765 58.749C52.33 59.22 51.1005 59.4605 49.861 59.4585V59.452C48.622 59.454 47.394 59.213 46.248 58.7425C45.1045 58.2715 44.063 57.5805 43.1875 56.7075C42.31 55.8365 41.6165 54.8 41.1435 53.6605C40.6705 52.5195 40.427 51.2985 40.429 50.0635C40.427 48.831 40.6705 47.61 41.1435 46.4685C41.6165 45.3295 42.31 44.2925 43.1875 43.4195C44.063 42.5485 45.104 41.8575 46.248 41.387C47.3945 40.916 48.622 40.6755 49.861 40.6775C51.1005 40.6755 52.328 40.9165 53.474 41.387C54.6205 41.8575 55.6595 42.549 56.537 43.4195C57.4125 44.2925 58.108 45.3295 58.581 46.4685C59.054 47.61 59.2955 48.831 59.2925 50.0635C59.297 51.2985 59.056 52.5215 58.5835 53.663V53.6625ZM78.8925 42.5595C78.926 42.6445 78.958 42.732 78.987 42.823C79.1425 43.305 79.2205 43.8045 79.2205 44.3205C79.2205 44.8675 79.1445 45.3765 78.9925 45.847C78.973 45.908 78.9525 45.967 78.9305 46.024H84.243L86.132 42.559H78.892L78.8925 42.5595Z" fill="#007635"/>
<path d="M23.6755 43.5805C23.9035 43.8925 24.063 44.232 24.154 44.6C24.245 44.9685 24.2905 45.346 24.2905 45.733V47.157C23.888 47.3095 23.4855 47.385 23.083 47.385C22.483 47.385 21.953 47.233 21.494 46.9295C21.1495 46.7015 20.861 46.4 20.6295 46.0245C20.5525 45.8995 20.4825 45.7665 20.4175 45.6255C20.1595 45.06 20.03 44.401 20.03 43.649C20.03 43.256 20.0585 42.8935 20.1145 42.5595C20.1725 42.215 20.2595 41.9025 20.3775 41.621C20.609 41.067 20.9245 40.651 21.323 40.374C21.7215 40.097 22.1755 39.958 22.6845 39.958C23.2315 39.958 23.797 40.1365 24.3815 40.4935C24.966 40.851 25.509 41.367 26.0105 42.0425V39.7645C25.122 39.5595 24.2525 39.457 23.402 39.457C22.4225 39.457 21.5415 39.6035 20.7595 39.896C19.9775 40.1885 19.3565 40.648 18.897 41.2745C18.6255 41.644 18.435 42.0725 18.3235 42.56C18.2465 42.8985 18.208 43.2655 18.208 43.6605C18.208 44.6215 18.399 45.409 18.7815 46.0245C18.8045 46.061 18.8275 46.0965 18.8515 46.132C19.2805 46.7625 19.856 47.2185 20.5775 47.499C21.299 47.78 22.1265 47.9205 23.0605 47.9205C23.9945 47.9205 24.9515 47.7875 26.022 47.522V43.5805H23.6755Z" fill="black"/>
<path d="M33.4885 42.5895C33.483 42.5795 33.478 42.5695 33.472 42.5595C33.196 42.0505 32.801 41.664 32.287 41.3995C31.763 41.13 31.1325 40.995 30.396 40.995C29.6595 40.995 29.025 41.13 28.4935 41.3995C27.972 41.664 27.573 42.0505 27.2965 42.5595C27.2905 42.5695 27.2855 42.5795 27.28 42.5895C27.003 43.1135 26.8645 43.7555 26.8645 44.5145C26.8645 45.0905 26.946 45.5955 27.109 46.0285C27.1585 46.161 27.2155 46.2865 27.2805 46.405C27.5575 46.914 27.96 47.2995 28.488 47.5615C29.016 47.8235 29.6515 47.9545 30.396 47.9545C31.1405 47.9545 31.763 47.8255 32.287 47.567C32.811 47.309 33.2115 46.9235 33.4885 46.411C33.5525 46.293 33.609 46.1685 33.6575 46.0375C33.8225 45.6005 33.9045 45.093 33.9045 44.514C33.9045 43.755 33.7655 43.113 33.4885 42.589V42.5895ZM31.968 46.041C31.8155 46.512 31.6015 46.886 31.324 47.163C31.047 47.44 30.7375 47.5785 30.396 47.5785C30.0545 47.5785 29.733 47.44 29.456 47.163C29.179 46.886 28.9645 46.512 28.8125 46.041C28.811 46.0375 28.8105 46.0345 28.809 46.031C28.659 45.563 28.5845 45.0575 28.5845 44.5145C28.5845 43.9715 28.66 43.499 28.8125 43.017C28.8635 42.8545 28.922 42.7025 28.9875 42.5595C29.116 42.2785 29.272 42.0365 29.456 41.832C29.733 41.5245 30.0465 41.3705 30.396 41.3705C30.7455 41.3705 31.0455 41.5245 31.3185 41.832C31.5 42.036 31.655 42.2785 31.7845 42.5595C31.8505 42.702 31.9095 42.8545 31.962 43.017C32.1175 43.499 32.1955 43.9985 32.1955 44.5145C32.1955 45.059 32.12 45.5665 31.9695 46.0355C31.9695 46.037 31.968 46.0395 31.968 46.041Z" fill="black"/>
<path d="M23.6755 43.5805C23.9035 43.8925 24.063 44.232 24.154 44.6C24.245 44.9685 24.2905 45.346 24.2905 45.733V47.157C23.888 47.3095 23.4855 47.385 23.083 47.385C22.483 47.385 21.953 47.233 21.494 46.9295C21.1495 46.7015 20.861 46.4 20.6295 46.0245C20.5525 45.8995 20.4825 45.7665 20.4175 45.6255C20.1595 45.06 20.03 44.401 20.03 43.649C20.03 43.256 20.0585 42.8935 20.1145 42.5595C20.1725 42.215 20.2595 41.9025 20.3775 41.621C20.609 41.067 20.9245 40.651 21.323 40.374C21.7215 40.097 22.1755 39.958 22.6845 39.958C23.2315 39.958 23.797 40.1365 24.3815 40.4935C24.966 40.851 25.509 41.367 26.0105 42.0425V39.7645C25.122 39.5595 24.2525 39.457 23.402 39.457C22.4225 39.457 21.5415 39.6035 20.7595 39.896C19.9775 40.1885 19.3565 40.648 18.897 41.2745C18.6255 41.644 18.435 42.0725 18.3235 42.56C18.2465 42.8985 18.208 43.2655 18.208 43.6605C18.208 44.6215 18.399 45.409 18.7815 46.0245C18.8045 46.061 18.8275 46.0965 18.8515 46.132C19.2805 46.7625 19.856 47.2185 20.5775 47.499C21.299 47.78 22.1265 47.9205 23.0605 47.9205C23.9945 47.9205 24.9515 47.7875 26.022 47.522V43.5805H23.6755Z" fill="url(#paint0_linear_22241_3568)"/>
<path d="M33.4885 42.5895C33.483 42.5795 33.478 42.5695 33.472 42.5595C33.196 42.0505 32.801 41.664 32.287 41.3995C31.763 41.13 31.1325 40.995 30.396 40.995C29.6595 40.995 29.025 41.13 28.4935 41.3995C27.972 41.664 27.573 42.0505 27.2965 42.5595C27.2905 42.5695 27.2855 42.5795 27.28 42.5895C27.003 43.1135 26.8645 43.7555 26.8645 44.5145C26.8645 45.0905 26.946 45.5955 27.109 46.0285C27.1585 46.161 27.2155 46.2865 27.2805 46.405C27.5575 46.914 27.96 47.2995 28.488 47.5615C29.016 47.8235 29.6515 47.9545 30.396 47.9545C31.1405 47.9545 31.763 47.8255 32.287 47.567C32.811 47.309 33.2115 46.9235 33.4885 46.411C33.5525 46.293 33.609 46.1685 33.6575 46.0375C33.8225 45.6005 33.9045 45.093 33.9045 44.514C33.9045 43.755 33.7655 43.113 33.4885 42.589V42.5895ZM31.968 46.041C31.8155 46.512 31.6015 46.886 31.324 47.163C31.047 47.44 30.7375 47.5785 30.396 47.5785C30.0545 47.5785 29.733 47.44 29.456 47.163C29.179 46.886 28.9645 46.512 28.8125 46.041C28.811 46.0375 28.8105 46.0345 28.809 46.031C28.659 45.563 28.5845 45.0575 28.5845 44.5145C28.5845 43.9715 28.66 43.499 28.8125 43.017C28.8635 42.8545 28.922 42.7025 28.9875 42.5595C29.116 42.2785 29.272 42.0365 29.456 41.832C29.733 41.5245 30.0465 41.3705 30.396 41.3705C30.7455 41.3705 31.0455 41.5245 31.3185 41.832C31.5 42.036 31.655 42.2785 31.7845 42.5595C31.8505 42.702 31.9095 42.8545 31.962 43.017C32.1175 43.499 32.1955 43.9985 32.1955 44.5145C32.1955 45.059 32.12 45.5665 31.9695 46.0355C31.9695 46.037 31.968 46.0395 31.968 46.041Z" fill="url(#paint1_linear_22241_3568)"/>
<path d="M70.7 43.387C70.928 43.699 71.0875 44.0385 71.1785 44.4065C71.2695 44.775 71.315 45.1525 71.315 45.5395V46.9635C70.9125 47.116 70.51 47.1915 70.1075 47.1915C69.5075 47.1915 68.9775 47.04 68.5185 46.736C68.2335 46.548 67.987 46.3085 67.7795 46.019C67.653 45.842 67.5405 45.646 67.4425 45.4315C67.1845 44.866 67.055 44.207 67.055 43.455C67.055 43.1375 67.073 42.8385 67.1105 42.5595C67.1655 42.1385 67.263 41.7615 67.402 41.4275C67.6335 40.8735 67.949 40.4575 68.3475 40.1805C68.746 39.9035 69.2 39.7645 69.709 39.7645C70.256 39.7645 70.8215 39.9435 71.406 40.3C71.9905 40.6575 72.5335 41.1735 73.035 41.849V39.571C72.1465 39.366 71.277 39.2635 70.4265 39.2635C69.447 39.2635 68.566 39.41 67.784 39.7025C67.002 39.995 66.381 40.4545 65.9215 41.081C65.615 41.4985 65.411 41.992 65.309 42.56C65.258 42.844 65.2325 43.146 65.2325 43.467C65.2325 44.485 65.447 45.309 65.876 45.939C65.894 45.966 65.9125 45.992 65.9315 46.0185C66.354 46.6085 66.911 47.0375 67.6015 47.306C68.323 47.587 69.1505 47.7275 70.0845 47.7275C71.0185 47.7275 71.9755 47.5945 73.046 47.329V43.388H70.6995L70.7 43.387Z" fill="black"/>
<path d="M80.593 42.5595C80.568 42.504 80.5415 42.449 80.5135 42.396C80.2365 41.872 79.836 41.4755 79.312 41.206C78.788 40.9365 78.1575 40.8015 77.421 40.8015C76.6845 40.8015 76.05 40.9365 75.5185 41.206C74.987 41.4755 74.5825 41.872 74.305 42.396C74.2765 42.449 74.2495 42.504 74.2255 42.5595C74.0015 43.052 73.8895 43.639 73.8895 44.321C73.8895 45.003 73.9965 45.55 74.211 46.023C74.24 46.0875 74.272 46.151 74.305 46.212C74.582 46.721 74.9845 47.1065 75.5125 47.3685C76.0405 47.6305 76.676 47.7615 77.4205 47.7615C78.165 47.7615 78.7875 47.6325 79.3115 47.374C79.8355 47.116 80.236 46.7305 80.513 46.218C80.547 46.1555 80.5785 46.091 80.6085 46.025C80.822 45.5495 80.929 44.9815 80.929 44.3215C80.929 43.6615 80.817 43.0525 80.593 42.56V42.5595ZM78.349 46.9695C78.072 47.2465 77.7625 47.385 77.421 47.385C77.0795 47.385 76.758 47.2465 76.481 46.9695C76.2395 46.728 76.0455 46.413 75.899 46.024C75.8775 45.9665 75.857 45.908 75.8375 45.847C75.685 45.3765 75.6095 44.8675 75.6095 44.3205C75.6095 43.8045 75.685 43.305 75.8375 42.823C75.866 42.732 75.897 42.644 75.9305 42.5595C76.0725 42.195 76.256 41.888 76.481 41.6385C76.758 41.331 77.0715 41.177 77.421 41.177C77.7705 41.177 78.0705 41.331 78.3435 41.6385C78.5655 41.888 78.748 42.195 78.8925 42.5595C78.926 42.6445 78.958 42.732 78.987 42.823C79.1425 43.305 79.2205 43.8045 79.2205 44.3205C79.2205 44.8675 79.1445 45.3765 78.9925 45.847C78.973 45.908 78.9525 45.967 78.9305 46.024C78.784 46.4125 78.59 46.7275 78.3485 46.969L78.349 46.9695Z" fill="black"/>
<path d="M70.7 43.387C70.928 43.699 71.0875 44.0385 71.1785 44.4065C71.2695 44.775 71.315 45.1525 71.315 45.5395V46.9635C70.9125 47.116 70.51 47.1915 70.1075 47.1915C69.5075 47.1915 68.9775 47.04 68.5185 46.736C68.2335 46.548 67.987 46.3085 67.7795 46.019C67.653 45.842 67.5405 45.646 67.4425 45.4315C67.1845 44.866 67.055 44.207 67.055 43.455C67.055 43.1375 67.073 42.8385 67.1105 42.5595C67.1655 42.1385 67.263 41.7615 67.402 41.4275C67.6335 40.8735 67.949 40.4575 68.3475 40.1805C68.746 39.9035 69.2 39.7645 69.709 39.7645C70.256 39.7645 70.8215 39.9435 71.406 40.3C71.9905 40.6575 72.5335 41.1735 73.035 41.849V39.571C72.1465 39.366 71.277 39.2635 70.4265 39.2635C69.447 39.2635 68.566 39.41 67.784 39.7025C67.002 39.995 66.381 40.4545 65.9215 41.081C65.615 41.4985 65.411 41.992 65.309 42.56C65.258 42.844 65.2325 43.146 65.2325 43.467C65.2325 44.485 65.447 45.309 65.876 45.939C65.894 45.966 65.9125 45.992 65.9315 46.0185C66.354 46.6085 66.911 47.0375 67.6015 47.306C68.323 47.587 69.1505 47.7275 70.0845 47.7275C71.0185 47.7275 71.9755 47.5945 73.046 47.329V43.388H70.6995L70.7 43.387Z" fill="url(#paint2_linear_22241_3568)"/>
<path d="M80.593 42.5595C80.568 42.504 80.5415 42.449 80.5135 42.396C80.2365 41.872 79.836 41.4755 79.312 41.206C78.788 40.9365 78.1575 40.8015 77.421 40.8015C76.6845 40.8015 76.05 40.9365 75.5185 41.206C74.987 41.4755 74.5825 41.872 74.305 42.396C74.2765 42.449 74.2495 42.504 74.2255 42.5595C74.0015 43.052 73.8895 43.639 73.8895 44.321C73.8895 45.003 73.9965 45.55 74.211 46.023C74.24 46.0875 74.272 46.151 74.305 46.212C74.582 46.721 74.9845 47.1065 75.5125 47.3685C76.0405 47.6305 76.676 47.7615 77.4205 47.7615C78.165 47.7615 78.7875 47.6325 79.3115 47.374C79.8355 47.116 80.236 46.7305 80.513 46.218C80.547 46.1555 80.5785 46.091 80.6085 46.025C80.822 45.5495 80.929 44.9815 80.929 44.3215C80.929 43.6615 80.817 43.0525 80.593 42.56V42.5595ZM78.349 46.9695C78.072 47.2465 77.7625 47.385 77.421 47.385C77.0795 47.385 76.758 47.2465 76.481 46.9695C76.2395 46.728 76.0455 46.413 75.899 46.024C75.8775 45.9665 75.857 45.908 75.8375 45.847C75.685 45.3765 75.6095 44.8675 75.6095 44.3205C75.6095 43.8045 75.685 43.305 75.8375 42.823C75.866 42.732 75.897 42.644 75.9305 42.5595C76.0725 42.195 76.256 41.888 76.481 41.6385C76.758 41.331 77.0715 41.177 77.421 41.177C77.7705 41.177 78.0705 41.331 78.3435 41.6385C78.5655 41.888 78.748 42.195 78.8925 42.5595C78.926 42.6445 78.958 42.732 78.987 42.823C79.1425 43.305 79.2205 43.8045 79.2205 44.3205C79.2205 44.8675 79.1445 45.3765 78.9925 45.847C78.973 45.908 78.9525 45.967 78.9305 46.024C78.784 46.4125 78.59 46.7275 78.3485 46.969L78.349 46.9695Z" fill="url(#paint3_linear_22241_3568)"/>
<path d="M44.6895 49.6585C44.4035 49.371 44.0175 49.2265 43.532 49.2265H41.91V52.7525H43.5125C43.7635 52.7525 44.013 52.6875 44.261 52.5565C44.5085 52.4255 44.7135 52.223 44.876 51.9485C45.0385 51.6745 45.1195 51.3325 45.1195 50.924C45.1195 50.368 44.9765 49.946 44.69 49.658L44.6895 49.6585ZM44.014 51.9515C43.8805 52.198 43.6995 52.3645 43.4715 52.4515C43.284 52.523 43.065 52.5635 42.814 52.5715V52.697L42.648 52.5715C42.705 52.573 42.76 52.5725 42.814 52.5715V49.4125C42.7605 49.411 42.705 49.411 42.648 49.4125L42.814 49.322V49.4125C43.082 49.417 43.308 49.4485 43.492 49.5055C43.713 49.5745 43.8885 49.72 44.0195 49.9425C44.1505 50.1655 44.2155 50.4925 44.2155 50.9245C44.2155 51.3565 44.149 51.7055 44.0145 51.9515H44.014Z" fill="black"/>
<path d="M47.6355 49.779C47.361 49.779 47.12 49.8695 46.9125 50.0505C46.7045 50.2315 46.519 50.464 46.355 50.7485V49.8495H45.451V52.7525H46.355V51.0045C46.459 50.8275 46.577 50.6955 46.709 50.61C46.8415 50.525 46.986 50.482 47.1435 50.482C47.398 50.482 47.6995 50.5725 48.0475 50.7535V49.8495C47.9105 49.8025 47.773 49.779 47.6355 49.779Z" fill="black"/>
<path d="M49.162 48.8925C49.075 48.804 48.966 48.759 48.8355 48.759C48.705 48.759 48.6005 48.8035 48.5115 48.8925C48.423 48.981 48.3785 49.089 48.3785 49.2165C48.3785 49.344 48.423 49.4515 48.5115 49.5405C48.6005 49.629 48.7085 49.6735 48.8355 49.6735C48.9625 49.6735 49.075 49.629 49.162 49.5405C49.249 49.4515 49.293 49.3435 49.293 49.2165C49.293 49.0895 49.249 48.981 49.162 48.8925ZM48.384 49.8495V52.7525H49.288V49.8495H48.384Z" fill="black"/>
<path d="M52.3265 49.8495L51.365 52.322L50.413 49.8495H49.509L50.624 52.7525H51.3875L52.5075 49.8495H52.3265Z" fill="black"/>
<path d="M54.8025 52.5215C54.595 52.615 54.399 52.662 54.215 52.662C54.0205 52.662 53.852 52.5985 53.7075 52.4715C53.5635 52.344 53.454 52.174 53.379 51.9615C53.3315 51.8275 53.299 51.686 53.2815 51.5375C53.5115 51.5875 53.737 51.6125 53.959 51.6125C54.26 51.6125 54.5275 51.569 54.76 51.4815C54.9925 51.3945 55.1725 51.278 55.2995 51.1325C55.427 50.9865 55.4905 50.8315 55.4905 50.6675C55.4905 50.5035 55.4395 50.344 55.3375 50.208C55.2355 50.0725 55.085 49.9655 54.888 49.8865C54.6905 49.808 54.449 49.7685 54.165 49.7685C53.8165 49.7685 53.5085 49.8195 53.2405 49.9215C52.9725 50.024 52.7625 50.182 52.61 50.3965C52.4575 50.611 52.3815 50.8805 52.3815 51.205C52.3815 51.6035 52.472 51.9275 52.653 52.177C52.834 52.4265 53.074 52.6055 53.374 52.7145C53.6735 52.8235 54.016 52.878 54.401 52.878C54.7425 52.878 55.1075 52.836 55.496 52.7525V52.0245C55.2415 52.2625 55.0105 52.428 54.803 52.522L54.8025 52.5215ZM53.266 51.271C53.266 51.04 53.2995 50.825 53.3665 50.6255C53.4335 50.4265 53.5305 50.265 53.6575 50.141C53.785 50.0175 53.9355 49.9555 54.11 49.9555C54.2845 49.9555 54.4195 50.0115 54.5165 50.124C54.6135 50.236 54.662 50.371 54.662 50.528C54.662 50.675 54.617 50.8135 54.5265 50.9425C54.436 51.0715 54.297 51.177 54.1095 51.259C53.922 51.3415 53.6895 51.382 53.4115 51.382C53.374 51.382 53.3265 51.3805 53.2685 51.378C53.267 51.343 53.266 51.3075 53.266 51.2715V51.271Z" fill="black"/>
<path d="M57.982 49.779C57.7075 49.779 57.4665 49.8695 57.259 50.0505C57.051 50.2315 56.8655 50.464 56.7015 50.7485V49.8495H55.7975V52.7525H56.7015V51.0045C56.8055 50.8275 56.9235 50.6955 57.0555 50.61C57.188 50.525 57.3325 50.482 57.49 50.482C57.7445 50.482 58.046 50.5725 58.394 50.7535V49.8495C58.257 49.8025 58.1195 49.779 57.982 49.779Z" fill="black"/>
<g filter="url(#filter0_d_22241_3568)">
<path d="M44.6895 49.6585C44.4035 49.371 44.0175 49.2265 43.532 49.2265H41.91V52.7525H43.5125C43.7635 52.7525 44.013 52.6875 44.261 52.5565C44.5085 52.4255 44.7135 52.223 44.876 51.9485C45.0385 51.6745 45.1195 51.3325 45.1195 50.924C45.1195 50.368 44.9765 49.946 44.69 49.658L44.6895 49.6585ZM44.014 51.9515C43.8805 52.198 43.6995 52.3645 43.4715 52.4515C43.284 52.523 43.065 52.5635 42.814 52.5715V52.697L42.648 52.5715C42.705 52.573 42.76 52.5725 42.814 52.5715V49.4125C42.7605 49.411 42.705 49.411 42.648 49.4125L42.814 49.322V49.4125C43.082 49.417 43.308 49.4485 43.492 49.5055C43.713 49.5745 43.8885 49.72 44.0195 49.9425C44.1505 50.1655 44.2155 50.4925 44.2155 50.9245C44.2155 51.3565 44.149 51.7055 44.0145 51.9515H44.014Z" fill="url(#paint4_linear_22241_3568)"/>
</g>
<g filter="url(#filter1_d_22241_3568)">
<path d="M47.6355 49.779C47.361 49.779 47.12 49.8695 46.9125 50.0505C46.7045 50.2315 46.519 50.464 46.355 50.7485V49.8495H45.451V52.7525H46.355V51.0045C46.459 50.8275 46.577 50.6955 46.709 50.61C46.8415 50.525 46.986 50.482 47.1435 50.482C47.398 50.482 47.6995 50.5725 48.0475 50.7535V49.8495C47.9105 49.8025 47.773 49.779 47.6355 49.779Z" fill="url(#paint5_linear_22241_3568)"/>
</g>
<g filter="url(#filter2_d_22241_3568)">
<path d="M49.162 48.8925C49.075 48.804 48.966 48.759 48.8355 48.759C48.705 48.759 48.6005 48.8035 48.5115 48.8925C48.423 48.981 48.3785 49.089 48.3785 49.2165C48.3785 49.344 48.423 49.4515 48.5115 49.5405C48.6005 49.629 48.7085 49.6735 48.8355 49.6735C48.9625 49.6735 49.075 49.629 49.162 49.5405C49.249 49.4515 49.293 49.3435 49.293 49.2165C49.293 49.0895 49.249 48.981 49.162 48.8925ZM48.384 49.8495V52.7525H49.288V49.8495H48.384Z" fill="url(#paint6_linear_22241_3568)"/>
</g>
<g filter="url(#filter3_d_22241_3568)">
<path d="M52.3265 49.8495L51.365 52.322L50.413 49.8495H49.509L50.624 52.7525H51.3875L52.5075 49.8495H52.3265Z" fill="url(#paint7_linear_22241_3568)"/>
</g>
<g filter="url(#filter4_d_22241_3568)">
<path d="M54.8025 52.5215C54.595 52.615 54.399 52.662 54.215 52.662C54.0205 52.662 53.852 52.5985 53.7075 52.4715C53.5635 52.344 53.454 52.174 53.379 51.9615C53.3315 51.8275 53.299 51.686 53.2815 51.5375C53.5115 51.5875 53.737 51.6125 53.959 51.6125C54.26 51.6125 54.5275 51.569 54.76 51.4815C54.9925 51.3945 55.1725 51.278 55.2995 51.1325C55.427 50.9865 55.4905 50.8315 55.4905 50.6675C55.4905 50.5035 55.4395 50.344 55.3375 50.208C55.2355 50.0725 55.085 49.9655 54.888 49.8865C54.6905 49.808 54.449 49.7685 54.165 49.7685C53.8165 49.7685 53.5085 49.8195 53.2405 49.9215C52.9725 50.024 52.7625 50.182 52.61 50.3965C52.4575 50.611 52.3815 50.8805 52.3815 51.205C52.3815 51.6035 52.472 51.9275 52.653 52.177C52.834 52.4265 53.074 52.6055 53.374 52.7145C53.6735 52.8235 54.016 52.878 54.401 52.878C54.7425 52.878 55.1075 52.836 55.496 52.7525V52.0245C55.2415 52.2625 55.0105 52.428 54.803 52.522L54.8025 52.5215ZM53.266 51.271C53.266 51.04 53.2995 50.825 53.3665 50.6255C53.4335 50.4265 53.5305 50.265 53.6575 50.141C53.785 50.0175 53.9355 49.9555 54.11 49.9555C54.2845 49.9555 54.4195 50.0115 54.5165 50.124C54.6135 50.236 54.662 50.371 54.662 50.528C54.662 50.675 54.617 50.8135 54.5265 50.9425C54.436 51.0715 54.297 51.177 54.1095 51.259C53.922 51.3415 53.6895 51.382 53.4115 51.382C53.374 51.382 53.3265 51.3805 53.2685 51.378C53.267 51.343 53.266 51.3075 53.266 51.2715V51.271Z" fill="url(#paint8_linear_22241_3568)"/>
</g>
<g filter="url(#filter5_d_22241_3568)">
<path d="M57.982 49.779C57.7075 49.779 57.4665 49.8695 57.259 50.0505C57.051 50.2315 56.8655 50.464 56.7015 50.7485V49.8495H55.7975V52.7525H56.7015V51.0045C56.8055 50.8275 56.9235 50.6955 57.0555 50.61C57.188 50.525 57.3325 50.482 57.49 50.482C57.7445 50.482 58.046 50.5725 58.394 50.7535V49.8495C58.257 49.8025 58.1195 49.779 57.982 49.779Z" fill="url(#paint9_linear_22241_3568)"/>
</g>
<defs>
<filter id="filter0_d_22241_3568" x="37.91" y="49.2265" width="11.2095" height="11.526" filterUnits="userSpaceOnUse" color-interpolation-filters="sRGB">
<feFlood flood-opacity="0" result="BackgroundImageFix"/>
<feColorMatrix in="SourceAlpha" type="matrix" values="0 0 0 0 0 0 0 0 0 0 0 0 0 0 0 0 0 0 127 0" result="hardAlpha"/>
<feOffset dy="4"/>
<feGaussianBlur stdDeviation="2"/>
<feComposite in2="hardAlpha" operator="out"/>
<feColorMatrix type="matrix" values="0 0 0 0 0 0 0 0 0 0 0 0 0 0 0 0 0 0 0.25 0"/>
<feBlend mode="normal" in2="BackgroundImageFix" result="effect1_dropShadow_22241_3568"/>
<feBlend mode="normal" in="SourceGraphic" in2="effect1_dropShadow_22241_3568" result="shape"/>
</filter>
<filter id="filter1_d_22241_3568" x="41.451" y="49.779" width="10.5965" height="10.9735" filterUnits="userSpaceOnUse" color-interpolation-filters="sRGB">
<feFlood flood-opacity="0" result="BackgroundImageFix"/>
<feColorMatrix in="SourceAlpha" type="matrix" values="0 0 0 0 0 0 0 0 0 0 0 0 0 0 0 0 0 0 127 0" result="hardAlpha"/>
<feOffset dy="4"/>
<feGaussianBlur stdDeviation="2"/>
<feComposite in2="hardAlpha" operator="out"/>
<feColorMatrix type="matrix" values="0 0 0 0 0 0 0 0 0 0 0 0 0 0 0 0 0 0 0.25 0"/>
<feBlend mode="normal" in2="BackgroundImageFix" result="effect1_dropShadow_22241_3568"/>
<feBlend mode="normal" in="SourceGraphic" in2="effect1_dropShadow_22241_3568" result="shape"/>
</filter>
<filter id="filter2_d_22241_3568" x="44.3785" y="48.759" width="8.91449" height="11.9935" filterUnits="userSpaceOnUse" color-interpolation-filters="sRGB">
<feFlood flood-opacity="0" result="BackgroundImageFix"/>
<feColorMatrix in="SourceAlpha" type="matrix" values="0 0 0 0 0 0 0 0 0 0 0 0 0 0 0 0 0 0 127 0" result="hardAlpha"/>
<feOffset dy="4"/>
<feGaussianBlur stdDeviation="2"/>
<feComposite in2="hardAlpha" operator="out"/>
<feColorMatrix type="matrix" values="0 0 0 0 0 0 0 0 0 0 0 0 0 0 0 0 0 0 0.25 0"/>
<feBlend mode="normal" in2="BackgroundImageFix" result="effect1_dropShadow_22241_3568"/>
<feBlend mode="normal" in="SourceGraphic" in2="effect1_dropShadow_22241_3568" result="shape"/>
</filter>
<filter id="filter3_d_22241_3568" x="45.509" y="49.8495" width="10.9985" height="10.903" filterUnits="userSpaceOnUse" color-interpolation-filters="sRGB">
<feFlood flood-opacity="0" result="BackgroundImageFix"/>
<feColorMatrix in="SourceAlpha" type="matrix" values="0 0 0 0 0 0 0 0 0 0 0 0 0 0 0 0 0 0 127 0" result="hardAlpha"/>
<feOffset dy="4"/>
<feGaussianBlur stdDeviation="2"/>
<feComposite in2="hardAlpha" operator="out"/>
<feColorMatrix type="matrix" values="0 0 0 0 0 0 0 0 0 0 0 0 0 0 0 0 0 0 0.25 0"/>
<feBlend mode="normal" in2="BackgroundImageFix" result="effect1_dropShadow_22241_3568"/>
<feBlend mode="normal" in="SourceGraphic" in2="effect1_dropShadow_22241_3568" result="shape"/>
</filter>
<filter id="filter4_d_22241_3568" x="48.3815" y="49.7685" width="11.1145" height="11.1095" filterUnits="userSpaceOnUse" color-interpolation-filters="sRGB">
<feFlood flood-opacity="0" result="BackgroundImageFix"/>
<feColorMatrix in="SourceAlpha" type="matrix" values="0 0 0 0 0 0 0 0 0 0 0 0 0 0 0 0 0 0 127 0" result="hardAlpha"/>
<feOffset dy="4"/>
<feGaussianBlur stdDeviation="2"/>
<feComposite in2="hardAlpha" operator="out"/>
<feColorMatrix type="matrix" values="0 0 0 0 0 0 0 0 0 0 0 0 0 0 0 0 0 0 0.25 0"/>
<feBlend mode="normal" in2="BackgroundImageFix" result="effect1_dropShadow_22241_3568"/>
<feBlend mode="normal" in="SourceGraphic" in2="effect1_dropShadow_22241_3568" result="shape"/>
</filter>
<filter id="filter5_d_22241_3568" x="51.7975" y="49.779" width="10.5965" height="10.9735" filterUnits="userSpaceOnUse" color-interpolation-filters="sRGB">
<feFlood flood-opacity="0" result="BackgroundImageFix"/>
<feColorMatrix in="SourceAlpha" type="matrix" values="0 0 0 0 0 0 0 0 0 0 0 0 0 0 0 0 0 0 127 0" result="hardAlpha"/>
<feOffset dy="4"/>
<feGaussianBlur stdDeviation="2"/>
<feComposite in2="hardAlpha" operator="out"/>
<feColorMatrix type="matrix" values="0 0 0 0 0 0 0 0 0 0 0 0 0 0 0 0 0 0 0.25 0"/>
<feBlend mode="normal" in2="BackgroundImageFix" result="effect1_dropShadow_22241_3568"/>
<feBlend mode="normal" in="SourceGraphic" in2="effect1_dropShadow_22241_3568" result="shape"/>
</filter>
<linearGradient id="paint0_linear_22241_3568" x1="18.208" y1="43.706" x2="33.9045" y2="43.706" gradientUnits="userSpaceOnUse">
<stop stop-color="#38AE1F"/>
<stop offset="1" stop-color="#8BD33A"/>
</linearGradient>
<linearGradient id="paint1_linear_22241_3568" x1="18.208" y1="43.706" x2="33.9045" y2="43.706" gradientUnits="userSpaceOnUse">
<stop stop-color="#38AE1F"/>
<stop offset="1" stop-color="#8BD33A"/>
</linearGradient>
<linearGradient id="paint2_linear_22241_3568" x1="65.2325" y1="43.5125" x2="80.929" y2="43.5125" gradientUnits="userSpaceOnUse">
<stop stop-color="#38AE1F"/>
<stop offset="1" stop-color="#8BD33A"/>
</linearGradient>
<linearGradient id="paint3_linear_22241_3568" x1="65.2325" y1="43.5125" x2="80.929" y2="43.5125" gradientUnits="userSpaceOnUse">
<stop stop-color="#38AE1F"/>
<stop offset="1" stop-color="#8BD33A"/>
</linearGradient>
<linearGradient id="paint4_linear_22241_3568" x1="41.9095" y1="50.819" x2="58.394" y2="50.819" gradientUnits="userSpaceOnUse">
<stop stop-color="#35AC20"/>
<stop offset="1" stop-color="#8BD33A"/>
</linearGradient>
<linearGradient id="paint5_linear_22241_3568" x1="41.9095" y1="50.819" x2="58.394" y2="50.819" gradientUnits="userSpaceOnUse">
<stop stop-color="#35AC20"/>
<stop offset="1" stop-color="#8BD33A"/>
</linearGradient>
<linearGradient id="paint6_linear_22241_3568" x1="41.9095" y1="50.819" x2="58.394" y2="50.819" gradientUnits="userSpaceOnUse">
<stop stop-color="#35AC20"/>
<stop offset="1" stop-color="#8BD33A"/>
</linearGradient>
<linearGradient id="paint7_linear_22241_3568" x1="41.9095" y1="50.819" x2="58.394" y2="50.819" gradientUnits="userSpaceOnUse">
<stop stop-color="#35AC20"/>
<stop offset="1" stop-color="#8BD33A"/>
</linearGradient>
<linearGradient id="paint8_linear_22241_3568" x1="41.9095" y1="50.819" x2="58.394" y2="50.819" gradientUnits="userSpaceOnUse">
<stop stop-color="#35AC20"/>
<stop offset="1" stop-color="#8BD33A"/>
</linearGradient>
<linearGradient id="paint9_linear_22241_3568" x1="41.9095" y1="50.819" x2="58.394" y2="50.819" gradientUnits="userSpaceOnUse">
<stop stop-color="#35AC20"/>
<stop offset="1" stop-color="#8BD33A"/>
</linearGradient>
</defs>
</svg>
