<svg width="122" height="122" viewBox="0 0 122 122" fill="none" xmlns="http://www.w3.org/2000/svg">
<circle opacity="0.2" cx="61" cy="61" r="61" fill="#007635"/>
<circle opacity="0.35" cx="60.9996" cy="61.0006" r="42.0132" fill="#007635"/>
<circle opacity="0.55" cx="61.0008" cy="60.9998" r="19.7947" fill="#007635"/>
<circle opacity="0.8" cx="60.9997" cy="61.0002" r="7.6755" fill="#007635"/>
<path fill-rule="evenodd" clip-rule="evenodd" d="M61.001 57.5781C62.3396 57.5781 63.4248 58.6633 63.4248 60.002V60.9715V60.9715L63.4248 60.9715L63.4248 60.9715L61.0058 64.3582C61.0034 64.3614 60.9985 64.3614 60.9962 64.3582L58.5772 60.9715L58.5772 60.9715L58.5771 60.9715V60.9715V60.002C58.5771 58.6633 59.6623 57.5781 61.001 57.5781ZM62.0655 59.7736C61.9916 59.4497 61.7741 59.177 61.4747 59.0328C61.1754 58.8887 60.8266 58.8887 60.5272 59.0328C60.2278 59.177 60.0104 59.4497 59.9365 59.7736C59.8625 60.0976 59.9401 60.4376 60.1473 60.6974C60.3545 60.9572 60.6687 61.1085 61.001 61.1085C61.3333 61.1085 61.6475 60.9572 61.8547 60.6974C62.0619 60.4376 62.1395 60.0976 62.0655 59.7736Z" fill="white"/>
<path d="M63.4248 60.002H64.0348V60.002L63.4248 60.002ZM63.4248 60.9715L63.8399 61.4185L64.0348 61.2375V60.9715H63.4248ZM63.4248 60.9715L63.7169 61.507L63.784 61.4705L63.8399 61.4185L63.4248 60.9715ZM63.4248 60.9715L63.1327 60.436L63.0098 60.503L62.9284 60.617L63.4248 60.9715ZM61.0058 64.3582L61.5022 64.7127L61.5022 64.7127L61.0058 64.3582ZM60.9962 64.3582L60.4998 64.7127L60.4998 64.7127L60.9962 64.3582ZM58.5772 60.9715L59.0735 60.617L58.9841 60.4917L58.8458 60.4239L58.5772 60.9715ZM58.5772 60.9715L58.1481 61.4051L58.219 61.4752L58.3085 61.5191L58.5772 60.9715ZM58.5771 60.9715H57.9671V61.2261L58.1481 61.4051L58.5771 60.9715ZM61.4747 59.0328L61.7394 58.4832L61.7394 58.4832L61.4747 59.0328ZM60.5272 59.0328L60.2626 58.4832L60.2626 58.4832L60.5272 59.0328ZM60.1473 60.6974L59.6704 61.0777L59.6704 61.0777L60.1473 60.6974ZM63.4248 60.002L64.0348 60.002C64.0348 58.3264 62.6765 56.9681 61.001 56.9681V57.5781V58.1881C62.0027 58.1881 62.8148 59.0002 62.8148 60.002L63.4248 60.002ZM63.4248 60.9715H64.0348V60.002H63.4248H62.8148V60.9715H63.4248ZM63.4248 60.9715H64.0348V60.9715H63.4248H62.8148V60.9715H63.4248ZM63.4248 60.9715L63.8399 61.4185L63.8399 61.4185L63.4248 60.9715L63.0098 60.5245L63.0097 60.5245L63.4248 60.9715ZM63.4248 60.9715L63.7169 61.507L63.7169 61.507L63.4248 60.9715L63.1327 60.436L63.1327 60.436L63.4248 60.9715ZM61.0058 64.3582L61.5022 64.7127L63.9212 61.3261L63.4248 60.9715L62.9284 60.617L60.5094 64.0036L61.0058 64.3582ZM60.9962 64.3582L60.4998 64.7127C60.7455 65.0566 61.2565 65.0566 61.5022 64.7127L61.0058 64.3582L60.5094 64.0036C60.7503 63.6663 61.2516 63.6663 61.4926 64.0036L60.9962 64.3582ZM58.5772 60.9715L58.0808 61.3261L60.4998 64.7127L60.9962 64.3582L61.4926 64.0036L59.0735 60.617L58.5772 60.9715ZM58.5772 60.9715L58.3085 61.5191L58.3085 61.5192L58.5772 60.9715L58.8458 60.4239L58.8458 60.4239L58.5772 60.9715ZM58.5771 60.9715L58.1481 61.4051L58.1481 61.4051L58.5772 60.9715L59.0062 60.5379L59.0062 60.5379L58.5771 60.9715ZM58.5771 60.9715H57.9671V60.9715H58.5771H59.1871V60.9715H58.5771ZM58.5771 60.002H57.9671V60.9715H58.5771H59.1871V60.002H58.5771ZM61.001 57.5781V56.9681C59.3254 56.9681 57.9671 58.3264 57.9671 60.002H58.5771H59.1871C59.1871 59.0002 59.9992 58.1881 61.001 58.1881V57.5781ZM61.4747 59.0328L61.2101 59.5824C61.3422 59.6461 61.4382 59.7664 61.4708 59.9094L62.0655 59.7736L62.6602 59.6379C62.545 59.1329 62.2061 58.708 61.7394 58.4832L61.4747 59.0328ZM60.5272 59.0328L60.7919 59.5824C60.924 59.5188 61.0779 59.5188 61.2101 59.5824L61.4747 59.0328L61.7394 58.4832C61.2728 58.2585 60.7292 58.2585 60.2626 58.4832L60.5272 59.0328ZM59.9365 59.7736L60.5312 59.9094C60.5638 59.7664 60.6598 59.6461 60.7919 59.5824L60.5272 59.0328L60.2626 58.4832C59.7959 58.708 59.457 59.1329 59.3418 59.6379L59.9365 59.7736ZM60.1473 60.6974L60.6242 60.3171C60.5328 60.2024 60.4985 60.0523 60.5312 59.9094L59.9365 59.7736L59.3418 59.6379C59.2265 60.1428 59.3475 60.6728 59.6704 61.0777L60.1473 60.6974ZM61.001 61.1085V60.4985C60.8543 60.4985 60.7157 60.4317 60.6242 60.3171L60.1473 60.6974L59.6704 61.0777C59.9933 61.4827 60.4831 61.7185 61.001 61.7185V61.1085ZM61.8547 60.6974L61.3778 60.3171C61.2863 60.4317 61.1476 60.4985 61.001 60.4985V61.1085V61.7185C61.5189 61.7185 62.0087 61.4827 62.3316 61.0777L61.8547 60.6974ZM62.0655 59.7736L61.4708 59.9094C61.5034 60.0523 61.4692 60.2024 61.3778 60.3171L61.8547 60.6974L62.3316 61.0777C62.6545 60.6728 62.7755 60.1428 62.6602 59.6379L62.0655 59.7736Z" fill="white"/>
</svg>
